<?xml version="1.0" encoding="UTF-8" standalone="no"?>
<!DOCTYPE svg PUBLIC "-//W3C//DTD SVG 1.1//EN" "http://www.w3.org/Graphics/SVG/1.1/DTD/svg11.dtd">
<svg xmlns="http://www.w3.org/2000/svg" version="1.1" viewBox="0.00 0.00 455.00 548.00">
<g stroke-width="2.00" fill="none" stroke-linecap="butt">
<path stroke="#4e81b6" vector-effect="non-scaling-stroke" d="
  M 224.21 84.84
  L 216.18 84.71"
/>
<path stroke="#4e81b6" vector-effect="non-scaling-stroke" d="
  M 148.60 110.38
  Q 147.82 112.33 142.82 114.17"
/>
<path stroke="#4e81b6" vector-effect="non-scaling-stroke" d="
  M 139.46 116.35
  L 132.96 120.29"
/>
<path stroke="#4e81b6" vector-effect="non-scaling-stroke" d="
  M 61.83 175.76
  L 58.73 181.29"
/>
<path stroke="#4e81b6" vector-effect="non-scaling-stroke" d="
  M 46.49 265.43
  Q 47.00 268.65 46.37 271.69"
/>
<path stroke="#4e81b6" vector-effect="non-scaling-stroke" d="
  M 58.91 356.14
  L 61.85 361.41"
/>
<path stroke="#4e81b6" vector-effect="non-scaling-stroke" d="
  M 133.04 416.61
  Q 135.47 416.51 138.75 419.23
  Q 139.12 419.54 139.70 419.29"
/>
<path stroke="#4e81b6" vector-effect="non-scaling-stroke" d="
  M 142.09 421.30
  Q 146.57 423.38 147.41 425.05"
/>
<path stroke="#4e81b6" vector-effect="non-scaling-stroke" d="
  M 216.82 452.37
  L 223.20 452.64"
/>
<path stroke="#4e81b6" vector-effect="non-scaling-stroke" d="
  M 291.95 425.63
  L 298.18 421.25"
/>
<path stroke="#4e81b6" vector-effect="non-scaling-stroke" d="
  M 299.92 420.17
  L 306.70 416.97"
/>
<path stroke="#4e81b6" vector-effect="non-scaling-stroke" d="
  M 378.05 361.75
  Q 378.25 358.65 381.30 356.11"
/>
<path stroke="#4e81b6" vector-effect="non-scaling-stroke" d="
  M 393.79 271.63
  Q 392.45 268.55 393.80 265.46"
/>
<path stroke="#4e81b6" vector-effect="non-scaling-stroke" d="
  M 381.09 181.10
  L 378.08 175.75"
/>
<path stroke="#4e81b6" vector-effect="non-scaling-stroke" d="
  M 305.83 119.15
  L 299.46 116.03"
/>
<path stroke="#4e81b6" vector-effect="non-scaling-stroke" d="
  M 297.12 114.56
  Q 293.17 112.29 291.70 110.47"
/>
<path stroke="#4e81b6" vector-effect="non-scaling-stroke" d="
  M 280.90 188.24
  Q 281.41 191.36 282.54 193.22
  Q 284.78 196.92 285.43 198.63"
/>
<path stroke="#4e81b6" vector-effect="non-scaling-stroke" d="
  M 223.11 219.37
  Q 219.56 216.64 216.70 215.92"
/>
<path stroke="#4e81b6" vector-effect="non-scaling-stroke" d="
  M 171.05 188.62
  Q 168.96 186.76 165.30 185.46"
/>
<path stroke="#4e81b6" vector-effect="non-scaling-stroke" d="
  M 308.90 216.83
  L 309.25 223.28"
/>
<path stroke="#4e81b6" vector-effect="non-scaling-stroke" d="
  M 324.66 265.60
  Q 325.22 268.64 324.73 271.76"
/>
<path stroke="#4e81b6" vector-effect="non-scaling-stroke" d="
  M 308.63 312.84
  L 308.57 319.89"
/>
<path stroke="#4e81b6" vector-effect="non-scaling-stroke" d="
  M 306.44 380.64
  L 299.83 380.76"
/>
<path stroke="#4e81b6" vector-effect="non-scaling-stroke" d="
  M 272.71 350.16
  Q 268.12 348.49 267.17 346.72"
/>
<path stroke="#4e81b6" vector-effect="non-scaling-stroke" d="
  M 223.25 321.00
  Q 220.58 320.07 216.70 316.69"
/>
<path stroke="#4e81b6" vector-effect="non-scaling-stroke" d="
  M 142.10 328.28
  Q 142.20 331.80 143.38 332.37
  Q 152.28 336.64 156.19 343.93"
/>
<path stroke="#4e81b6" vector-effect="non-scaling-stroke" d="
  M 139.79 375.81
  L 133.18 375.69"
/>
<path stroke="#4e81b6" vector-effect="non-scaling-stroke" d="
  M 130.69 320.56
  Q 129.82 317.57 130.72 313.86"
/>
<path stroke="#4e81b6" vector-effect="non-scaling-stroke" d="
  M 114.36 271.78
  Q 113.76 268.81 114.21 265.54"
/>
<path stroke="#4e81b6" vector-effect="non-scaling-stroke" d="
  M 130.95 223.51
  L 131.05 216.43"
/>
<path stroke="#4e81b6" vector-effect="non-scaling-stroke" d="
  M 139.60 155.48
  Q 136.37 154.79 133.27 155.61"
/>
<path stroke="#4e81b6" vector-effect="non-scaling-stroke" d="
  M 305.79 161.12
  L 299.23 160.86"
/>
<path stroke="#4e81b6" vector-effect="non-scaling-stroke" d="
  M 216.80 303.87
  L 223.01 307.09"
/>
<path stroke="#4e81b6" vector-effect="non-scaling-stroke" d="
  M 223.28 232.55
  L 216.88 229.34"
/>
</g>
<path fill="#5fa0e3" d="
  M 220.04 41.05
  Q 225.03 41.05 227.87 42.35
  Q 243.48 49.52 240.90 67.10
  A 2.15 2.15 0.0 0 0 241.93 69.25
  L 381.96 151.67
  A 2.02 2.02 0.0 0 0 384.28 151.47
  Q 393.87 143.41 405.20 146.93
  C 411.88 149.00 417.63 154.83 419.32 161.25
  Q 423.14 175.76 411.35 185.42
  C 409.66 186.80 406.71 187.90 404.99 188.64
  A 1.56 1.55 78.0 0 0 404.07 190.06
  L 404.07 346.32
  A 2.13 2.12 -77.6 0 0 405.30 348.25
  Q 409.44 350.19 410.77 351.19
  Q 420.57 358.51 420.07 370.29
  C 419.79 376.94 415.67 383.99 410.05 387.49
  Q 399.87 393.83 388.15 388.21
  A 0.90 0.85 73.5 0 1 387.98 388.11
  L 383.93 385.04
  A 2.51 2.50 48.2 0 0 381.15 384.88
  L 242.22 466.75
  A 2.96 2.96 0.0 0 0 240.77 469.48
  Q 240.78 469.67 241.08 472.96
  C 242.22 485.29 232.10 495.86 219.98 495.86
  C 207.87 495.86 197.75 485.28 198.89 472.96
  Q 199.19 469.67 199.20 469.48
  A 2.96 2.96 0.0 0 0 197.76 466.74
  L 58.84 384.84
  A 2.51 2.50 -48.2 0 0 56.06 385.00
  L 52.01 388.07
  A 0.90 0.85 -73.5 0 1 51.84 388.17
  Q 40.12 393.79 29.94 387.45
  C 24.32 383.94 20.21 376.89 19.93 370.24
  Q 19.43 358.46 29.23 351.15
  Q 30.56 350.15 34.70 348.21
  A 2.13 2.12 77.6 0 0 35.93 346.28
  L 35.97 190.02
  A 1.56 1.55 -78.0 0 0 35.05 188.60
  C 33.33 187.86 30.38 186.76 28.69 185.38
  Q 16.90 175.71 20.73 161.20
  C 22.42 154.78 28.17 148.96 34.85 146.89
  Q 46.18 143.37 55.77 151.43
  A 2.02 2.02 0.0 0 0 58.09 151.63
  L 198.14 69.24
  A 2.15 2.15 0.0 0 0 199.17 67.10
  Q 196.59 49.51 212.21 42.35
  Q 215.05 41.04 220.04 41.05
  Z
  M 224.21 84.84
  L 216.18 84.71
  Q 209.99 82.25 205.11 78.46
  A 1.73 1.73 0.0 0 0 203.16 78.33
  L 148.60 110.38
  Q 147.82 112.33 142.82 114.17
  Q 140.49 114.84 139.46 116.35
  L 132.96 120.29
  Q 129.64 121.27 125.19 123.93
  Q 95.15 141.84 63.11 160.40
  A 1.45 1.43 71.9 0 0 62.40 161.82
  C 62.79 165.28 62.91 168.77 62.30 172.27
  Q 62.00 173.96 61.83 175.76
  L 58.73 181.29
  Q 54.23 185.82 48.93 188.05
  C 46.87 188.91 46.27 189.56 46.27 191.75
  Q 46.33 228.51 46.49 265.43
  Q 47.00 268.65 46.37 271.69
  L 46.29 346.27
  A 2.15 2.14 11.3 0 0 47.62 348.25
  Q 51.09 349.69 54.08 351.57
  C 55.70 352.58 57.31 354.68 58.91 356.14
  L 61.85 361.41
  Q 63.06 368.29 62.61 374.38
  A 1.32 1.32 0.0 0 0 63.26 375.60
  L 133.04 416.61
  Q 135.47 416.51 138.75 419.23
  Q 139.12 419.54 139.70 419.29
  Q 139.97 421.76 142.09 421.30
  Q 146.57 423.38 147.41 425.05
  L 203.56 458.46
  A 1.96 1.95 -49.2 0 0 205.79 458.29
  C 208.20 456.31 210.39 454.59 213.54 453.59
  Q 215.21 453.05 216.82 452.37
  L 223.20 452.64
  Q 229.99 454.55 234.52 458.55
  A 1.53 1.51 50.1 0 0 236.31 458.72
  L 291.95 425.63
  L 298.18 421.25
  L 299.92 420.17
  L 306.70 416.97
  Q 340.97 396.83 373.46 377.71
  Q 375.70 376.39 376.88 375.22
  A 1.80 1.79 -25.3 0 0 377.39 373.81
  Q 376.84 367.95 378.05 361.75
  Q 378.25 358.65 381.30 356.11
  Q 385.98 350.26 392.65 348.10
  A 1.86 1.86 0.0 0 0 393.93 346.33
  L 393.79 271.63
  Q 392.45 268.55 393.80 265.46
  L 394.02 190.94
  A 2.22 2.21 -76.2 0 0 392.84 188.98
  L 385.61 185.14
  A 1.67 1.41 -4.9 0 1 385.27 184.90
  L 381.09 181.10
  L 378.08 175.75
  Q 376.76 168.12 377.64 161.90
  A 1.04 1.03 -70.5 0 0 377.16 160.88
  C 361.15 151.09 348.11 143.69 328.75 132.15
  Q 317.52 125.46 305.83 119.15
  L 299.46 116.03
  Q 299.06 114.13 297.12 114.56
  Q 293.17 112.29 291.70 110.47
  L 236.57 78.03
  A 1.61 1.60 38.6 0 0 234.67 78.24
  Q 229.98 82.60 224.21 84.84
  Z"
/>
<path fill="#3d6189" d="
  M 224.21 84.84
  Q 223.38 87.70 223.36 89.82
  Q 223.04 124.96 223.18 146.74
  A 2.46 2.40 -88.5 0 0 225.43 149.17
  Q 226.22 149.22 227.44 148.48
  Q 259.22 129.49 291.70 110.47
  Q 293.17 112.29 297.12 114.56
  L 229.87 153.94
  A 2.26 2.25 -27.2 0 0 228.95 156.79
  Q 229.63 158.33 231.41 159.38
  Q 256.06 173.93 280.27 188.49
  Q 280.51 188.63 280.90 188.24
  Q 281.41 191.36 282.54 193.22
  Q 284.78 196.92 285.43 198.63
  Q 256.38 181.59 226.87 163.88
  A 2.29 2.28 39.2 0 0 224.16 164.15
  Q 223.05 165.17 223.06 167.42
  Q 223.24 192.98 223.11 219.37
  Q 219.56 216.64 216.70 215.92
  Q 216.68 190.91 216.65 166.99
  A 3.23 3.22 -81.0 0 0 214.45 163.94
  Q 213.46 163.61 212.17 164.39
  Q 191.90 176.82 171.05 188.62
  Q 168.96 186.76 165.30 185.46
  Q 187.45 171.85 209.57 158.85
  Q 210.83 158.11 211.27 156.22
  A 0.99 0.97 -60.0 0 0 211.04 155.33
  Q 209.57 153.73 208.57 153.16
  Q 175.44 134.14 142.82 114.17
  Q 147.82 112.33 148.60 110.38
  L 213.14 148.84
  A 1.78 1.72 61.2 0 0 213.98 149.10
  Q 216.76 149.25 216.74 146.74
  Q 216.65 126.99 216.64 93.00
  Q 216.64 87.51 216.18 84.71
  L 224.21 84.84
  Z"
/>
<path fill="#3d6189" d="
  M 305.83 119.15
  L 305.79 161.12
  L 299.23 160.86
  L 299.46 116.03
  L 305.83 119.15
  Z"
/>
<path fill="#3d6189" d="
  M 139.46 116.35
  L 139.60 155.48
  Q 136.37 154.79 133.27 155.61
  L 132.96 120.29
  L 139.46 116.35
  Z"
/>
<path fill="#5fa0e3" d="
  M 133.27 155.61
  Q 136.37 154.79 139.60 155.48
  C 142.45 156.42 145.59 157.34 147.95 158.90
  Q 158.69 166.00 157.73 180.02
  A 2.30 2.29 23.8 0 0 158.45 181.86
  Q 161.46 184.68 165.30 185.46
  Q 168.96 186.76 171.05 188.62
  Q 171.90 190.11 173.19 190.82
  Q 184.35 197.03 195.12 203.89
  Q 199.78 206.85 216.70 215.92
  Q 219.56 216.64 223.11 219.37
  Q 227.26 222.72 235.61 227.63
  Q 246.12 233.80 280.38 253.88
  Q 281.92 254.78 284.60 256.13
  A 1.64 1.63 -54.3 0 0 286.48 255.82
  Q 291.18 251.10 296.83 249.01
  A 1.56 1.55 -10.4 0 0 297.84 247.56
  Q 297.83 214.83 297.86 209.34
  C 297.88 206.83 296.94 205.34 294.89 204.11
  Q 290.06 201.21 285.43 198.63
  Q 284.78 196.92 282.54 193.22
  Q 281.41 191.36 280.90 188.24
  Q 281.36 187.65 281.30 187.25
  Q 278.92 171.83 291.40 164.28
  C 293.59 162.95 296.68 162.10 299.23 160.86
  L 305.79 161.12
  Q 308.41 162.20 311.09 163.36
  C 316.53 165.72 320.74 169.66 322.66 175.30
  C 326.90 187.70 321.04 198.43 309.30 203.46
  A 1.58 1.58 0.0 0 0 308.35 204.76
  Q 307.77 210.65 308.90 216.83
  L 309.25 223.28
  L 308.33 224.78
  A 0.88 0.86 -30.2 0 0 308.23 225.14
  Q 308.16 237.92 308.21 246.00
  C 308.22 248.15 308.46 248.94 310.57 249.78
  C 316.57 252.18 320.56 256.17 322.88 262.11
  Q 323.61 263.98 324.66 265.60
  Q 325.22 268.64 324.73 271.76
  C 323.80 274.69 323.03 278.12 321.71 280.53
  Q 317.65 287.93 309.63 290.50
  A 1.85 1.84 -9.3 0 0 308.35 292.27
  L 308.63 312.84
  L 308.57 319.89
  L 308.15 336.40
  A 1.92 1.90 -77.2 0 0 309.28 338.21
  C 317.32 341.82 322.07 345.47 323.79 354.78
  Q 326.00 366.68 316.18 375.43
  C 313.40 377.91 309.55 378.95 306.44 380.64
  L 299.83 380.76
  C 297.23 379.63 294.19 378.59 292.02 377.31
  Q 281.03 370.84 281.33 357.32
  C 281.38 354.68 280.76 354.29 278.78 352.97
  Q 274.86 350.37 272.71 350.16
  Q 268.12 348.49 267.17 346.72
  Q 251.71 337.08 236.82 328.16
  Q 230.32 324.26 223.25 321.00
  Q 220.58 320.07 216.70 316.69
  L 156.43 281.08
  A 1.82 1.82 0.0 0 0 154.06 281.54
  Q 149.57 287.34 143.25 289.66
  A 2.42 2.41 -10.5 0 0 141.67 291.95
  L 142.10 328.28
  Q 142.20 331.80 143.38 332.37
  Q 152.28 336.64 156.19 343.93
  Q 161.46 362.33 148.66 371.51
  Q 147.12 372.61 144.31 373.80
  Q 142.01 374.77 139.79 375.81
  L 133.18 375.69
  Q 124.73 373.40 119.86 367.43
  C 112.01 357.81 113.75 344.41 123.49 336.78
  C 125.25 335.40 127.29 334.46 129.71 333.30
  A 2.71 2.71 0.0 0 0 131.24 331.12
  Q 131.83 325.27 130.69 320.56
  Q 129.82 317.57 130.72 313.86
  L 131.25 291.85
  A 1.99 1.98 -80.3 0 0 129.89 289.92
  Q 117.06 285.61 114.36 271.78
  Q 113.76 268.81 114.21 265.54
  Q 115.10 263.66 115.90 261.64
  C 118.16 255.91 121.78 251.74 127.49 249.25
  Q 129.77 248.25 130.65 247.64
  A 1.07 1.06 -18.2 0 0 131.09 246.78
  L 130.95 223.51
  L 131.05 216.43
  L 131.32 200.10
  A 2.12 2.12 0.0 0 0 129.80 198.03
  Q 119.83 195.06 115.99 185.23
  Q 113.34 178.47 115.53 171.43
  Q 119.55 158.48 133.27 155.61
  Z
  M 216.80 303.87
  L 223.01 307.09
  Q 223.43 308.70 225.38 309.86
  Q 257.80 329.00 284.39 344.72
  A 1.74 1.73 38.2 0 0 286.46 344.48
  Q 290.58 340.58 296.16 338.01
  A 2.83 2.83 0.0 0 0 297.80 335.44
  L 297.80 292.95
  A 2.46 2.46 0.0 0 0 296.18 290.64
  Q 280.74 285.02 281.32 267.57
  A 2.49 2.48 -74.4 0 0 280.06 265.32
  Q 262.64 255.54 243.74 244.00
  Q 233.86 237.96 223.28 232.55
  L 216.88 229.34
  Q 216.76 228.16 215.53 227.45
  Q 185.67 210.14 155.35 191.79
  A 2.64 2.63 -52.2 0 0 152.09 192.21
  Q 148.23 196.16 142.74 198.03
  A 1.52 1.52 0.0 0 0 141.71 199.47
  L 141.71 246.37
  A 1.79 1.78 -78.5 0 0 142.79 248.01
  C 150.28 251.17 155.99 256.35 157.54 264.63
  C 157.97 266.95 157.88 269.78 159.47 271.06
  Q 159.48 271.07 164.18 273.81
  Q 199.70 294.59 215.15 303.83
  Q 215.64 304.13 216.80 303.87
  Z"
/>
<path fill="#3d6189" d="
  M 378.08 175.75
  L 381.09 181.10
  Q 379.25 182.44 377.48 183.49
  Q 353.64 197.65 329.80 211.81
  Q 319.92 217.68 309.25 223.28
  L 308.90 216.83
  L 378.08 175.75
  Z"
/>
<path fill="#3d6189" d="
  M 61.83 175.76
  L 131.05 216.43
  L 130.95 223.51
  L 58.73 181.29
  L 61.83 175.76
  Z"
/>
<path fill="#3d6189" d="
  M 223.28 232.55
  Q 222.76 247.33 223.20 261.01
  Q 223.34 265.43 227.92 265.40
  Q 231.51 265.37 251.05 265.58
  A 3.29 3.29 0.0 0 1 254.30 268.71
  L 254.30 268.85
  A 2.95 2.95 0.0 0 1 251.32 271.94
  Q 233.07 271.79 230.28 271.87
  C 226.92 271.97 222.98 272.69 223.03 276.32
  Q 223.21 291.64 223.01 307.09
  L 216.80 303.87
  Q 216.72 290.33 216.65 276.72
  Q 216.62 271.99 211.69 271.93
  Q 199.49 271.77 186.38 271.81
  A 3.11 3.11 0.0 0 1 183.26 268.67
  L 183.26 268.49
  A 3.03 3.03 0.0 0 1 186.33 265.49
  Q 196.49 265.59 211.27 265.54
  Q 216.50 265.52 216.51 260.51
  Q 216.52 245.37 216.88 229.34
  L 223.28 232.55
  Z"
/>
<path fill="#3d6189" d="
  M 393.80 265.46
  Q 392.45 268.55 393.79 271.63
  L 324.73 271.76
  Q 325.22 268.64 324.66 265.60
  L 393.80 265.46
  Z"
/>
<path fill="#3d6189" d="
  M 46.49 265.43
  L 114.21 265.54
  Q 113.76 268.81 114.36 271.78
  L 46.37 271.69
  Q 47.00 268.65 46.49 265.43
  Z"
/>
<path fill="#3d6189" d="
  M 381.30 356.11
  Q 378.25 358.65 378.05 361.75
  L 308.57 319.89
  L 308.63 312.84
  L 381.30 356.11
  Z"
/>
<path fill="#3d6189" d="
  M 130.72 313.86
  Q 129.82 317.57 130.69 320.56
  L 61.85 361.41
  L 58.91 356.14
  L 130.72 313.86
  Z"
/>
<path fill="#3d6189" d="
  M 223.25 321.00
  Q 222.69 351.92 223.08 368.05
  C 223.13 370.00 225.07 371.08 227.02 370.21
  Q 228.91 369.36 229.49 369.01
  Q 247.54 358.06 267.17 346.72
  Q 268.12 348.49 272.71 350.16
  Q 254.37 361.85 236.05 372.35
  C 232.24 374.53 225.00 377.30 232.52 381.72
  Q 265.52 401.15 298.18 421.25
  L 291.95 425.63
  Q 289.97 423.47 287.19 421.79
  Q 240.43 393.44 227.97 386.26
  Q 225.68 384.94 224.16 386.37
  Q 223.01 387.46 223.04 390.15
  Q 223.35 421.45 223.20 452.64
  L 216.82 452.37
  L 216.68 388.59
  A 1.84 1.79 29.1 0 0 216.40 387.66
  Q 214.81 385.22 211.86 386.59
  Q 210.52 387.21 204.38 390.90
  Q 176.22 407.85 147.41 425.05
  Q 146.57 423.38 142.09 421.30
  Q 175.29 401.00 208.51 381.26
  Q 210.25 380.23 210.67 378.96
  A 3.01 3.00 -65.8 0 0 209.35 375.45
  Q 183.21 359.92 156.19 343.93
  Q 152.28 336.64 143.38 332.37
  Q 142.20 331.80 142.10 328.28
  Q 146.32 331.04 150.39 333.28
  C 158.75 337.91 166.83 343.01 174.53 347.50
  Q 189.38 356.16 193.08 358.47
  Q 209.04 368.45 211.44 369.71
  C 213.42 370.75 216.75 371.38 216.73 367.92
  Q 216.59 342.48 216.70 316.69
  Q 220.58 320.07 223.25 321.00
  Z"
/>
<path fill="#3d6189" d="
  M 139.79 375.81
  L 139.70 419.29
  Q 139.12 419.54 138.75 419.23
  Q 135.47 416.51 133.04 416.61
  L 133.18 375.69
  L 139.79 375.81
  Z"
/>
<path fill="#3d6189" d="
  M 306.44 380.64
  Q 305.74 398.62 306.70 416.97
  L 299.92 420.17
  L 299.83 380.76
  L 306.44 380.64
  Z"
/>
</svg>
