<?xml version="1.0" encoding="UTF-8" standalone="no"?>
<!DOCTYPE svg PUBLIC "-//W3C//DTD SVG 1.1//EN" "http://www.w3.org/Graphics/SVG/1.1/DTD/svg11.dtd">
<svg xmlns="http://www.w3.org/2000/svg" version="1.1" viewBox="0.00 0.00 1408.00 487.00">
<g stroke-width="2.00" fill="none" stroke-linecap="butt">
<path stroke="#355b86" vector-effect="non-scaling-stroke" d="
  M 421.95 152.94
  Q 419.08 144.52 409.99 144.59
  C 402.90 144.65 398.27 151.50 399.36 158.19
  A 1.64 1.64 0.0 0 1 398.56 159.86
  L 327.35 200.98
  A 1.00 0.99 48.4 0 1 326.25 200.91
  C 318.93 195.38 307.33 199.68 307.41 209.69
  Q 307.47 217.91 315.13 220.98
  A 0.95 0.95 0.0 0 1 315.72 221.86
  L 315.72 301.70
  A 1.06 1.05 80.3 0 1 315.02 302.70
  C 300.14 308.04 309.12 331.20 324.72 323.36
  C 325.60 322.92 326.09 322.34 326.74 322.01
  A 1.17 1.17 0.0 0 1 327.86 322.04
  L 398.67 363.46
  A 1.65 1.63 20.3 0 1 399.46 365.16
  C 396.98 379.24 416.42 384.49 421.67 371.28
  C 422.40 369.44 422.13 367.03 422.04 364.88
  A 1.28 1.26 74.3 0 1 422.68 363.72
  C 429.14 359.99 439.36 353.56 447.69 349.09
  C 455.59 344.86 461.73 340.31 469.39 336.34
  Q 480.57 330.54 493.09 322.17
  A 1.77 1.76 46.0 0 1 495.09 322.21
  C 500.79 326.35 508.37 325.38 512.44 319.50
  Q 514.08 317.12 514.00 313.59
  Q 513.82 306.02 506.24 302.58
  A 1.01 1.01 0.0 0 1 505.65 301.66
  L 505.65 221.94
  A 0.77 0.77 0.0 0 1 506.14 221.22
  C 512.56 218.70 515.58 212.17 513.27 205.61
  Q 511.83 201.55 507.86 199.72
  Q 501.18 196.65 495.04 201.10
  A 1.16 1.14 41.9 0 1 493.77 201.16
  L 422.93 159.61
  A 1.63 1.63 0.0 0 1 422.15 157.89
  Q 422.57 155.69 421.96 152.96
  A 0.03 0.02 31.7 0 1 421.95 152.94"
/>
<path stroke="#8f8f8f" vector-effect="non-scaling-stroke" d="
  M 828.3683 220.7801
  A 9.18 8.91 -159.2 0 0 833.7860 232.3693
  A 9.18 8.91 -159.2 0 0 845.5317 227.2999
  A 9.18 8.91 -159.2 0 0 840.1140 215.7107
  A 9.18 8.91 -159.2 0 0 828.3683 220.7801"
/>
<path stroke="#8f8f8f" vector-effect="non-scaling-stroke" d="
  M 928.73 244.80
  L 928.68 234.90
  A 2.27 1.99 41.3 0 0 928.61 234.36
  Q 927.96 231.81 925.89 229.39
  Q 921.70 224.46 916.62 219.87
  Q 913.63 217.17 909.75 217.14
  Q 901.01 217.08 886.95 217.12
  C 881.02 217.14 877.08 216.99 873.33 220.05
  Q 868.68 223.84 863.11 230.79
  Q 860.63 233.88 860.62 237.52
  Q 860.61 261.29 860.57 283.48
  C 860.56 285.91 860.97 289.21 862.10 290.97
  C 865.74 296.62 873.74 306.29 881.27 306.43
  Q 893.44 306.66 907.29 306.51
  C 909.63 306.49 913.19 305.98 914.65 304.90
  Q 921.32 299.96 926.11 293.49
  C 929.44 289.00 928.62 284.46 928.62 278.51
  A 0.90 0.90 0.0 0 0 927.72 277.61
  L 915.08 277.61
  A 0.65 0.65 0.0 0 0 914.43 278.24
  C 914.36 281.19 914.59 284.27 913.38 286.73
  Q 910.66 292.22 905.74 293.60
  A 3.98 3.96 -52.8 0 1 904.66 293.75
  L 885.34 293.75
  A 2.43 2.15 48.6 0 1 884.78 293.68
  Q 877.39 291.59 875.03 283.89
  A 2.86 2.75 -54.2 0 1 874.92 283.11
  L 874.92 240.40
  A 1.40 0.95 60.8 0 1 874.94 240.17
  Q 876.66 233.04 883.54 229.99
  A 2.80 2.76 -56.8 0 1 884.69 229.74
  Q 900.01 229.76 900.86 229.72
  Q 905.68 229.47 907.95 230.85
  Q 911.20 232.81 913.19 236.00
  C 914.67 238.37 914.20 241.83 914.32 244.62
  A 0.74 0.73 88.8 0 0 915.05 245.33
  L 928.21 245.33
  A 0.52 0.52 0.0 0 0 928.73 244.80"
/>
<path stroke="#8f8f8f" vector-effect="non-scaling-stroke" d="
  M 565.31 218.28
  L 565.31 305.44
  A 0.45 0.44 -0.0 0 0 565.76 305.88
  L 578.69 305.88
  A 0.96 0.96 0.0 0 0 579.65 304.92
  L 579.65 243.35
  A 0.33 0.33 0.0 0 1 580.26 243.17
  C 588.29 255.45 593.27 262.86 600.82 275.24
  C 608.04 287.08 611.99 292.77 619.42 305.19
  A 1.41 1.41 0.0 0 0 620.63 305.88
  L 632.76 305.88
  A 0.99 0.98 -90.0 0 0 633.74 304.89
  L 633.74 218.04
  A 0.37 0.36 0.0 0 0 633.37 217.68
  L 619.95 217.68
  A 0.28 0.27 -0.0 0 0 619.67 217.95
  L 619.67 279.77
  A 0.44 0.44 0.0 0 1 618.86 280.00
  L 580.04 218.17
  A 1.19 1.18 73.7 0 0 579.04 217.62
  L 565.97 217.62
  A 0.66 0.66 0.0 0 0 565.31 218.28"
/>
<path stroke="#8f8f8f" vector-effect="non-scaling-stroke" d="
  M 973.29 285.12
  Q 987.73 285.12 989.21 285.12
  A 1.05 1.04 80.0 0 1 990.18 285.81
  L 996.98 305.24
  A 0.95 0.93 -9.6 0 0 997.87 305.86
  L 1011.09 305.87
  A 0.57 0.57 0.0 0 0 1011.63 305.11
  L 981.16 218.15
  A 0.73 0.73 0.0 0 0 980.47 217.66
  Q 976.94 217.62 973.28 217.62
  Q 969.62 217.62 966.09 217.66
  A 0.73 0.73 0.0 0 0 965.40 218.15
  L 934.95 305.12
  A 0.57 0.57 0.0 0 0 935.49 305.88
  L 948.71 305.86
  A 0.95 0.93 9.6 0 0 949.60 305.24
  L 956.39 285.81
  A 1.05 1.04 -80.0 0 1 957.37 285.12
  Q 958.85 285.12 973.29 285.12"
/>
<path stroke="#8f8f8f" vector-effect="non-scaling-stroke" d="
  M 1022.46 218.08
  L 1022.62 305.70
  A 0.36 0.36 0.0 0 0 1022.98 306.06
  L 1063.17 305.99
  A 26.75 25.83 -0.1 0 0 1089.87 280.11
  L 1089.81 243.43
  A 26.75 25.83 -0.1 0 0 1063.01 217.65
  L 1022.82 217.72
  A 0.36 0.36 0.0 0 0 1022.46 218.08"
/>
<path stroke="#8f8f8f" vector-effect="non-scaling-stroke" d="
  M 736.90 248.12
  L 736.90 242.44
  A 0.78 0.78 0.0 0 0 736.12 241.66
  L 724.37 241.66
  A 0.72 0.72 0.0 0 0 723.65 242.38
  L 723.65 305.16
  A 0.76 0.76 0.0 0 0 724.41 305.92
  L 737.62 305.92
  A 0.49 0.49 0.0 0 0 738.11 305.42
  Q 737.90 288.98 738.11 263.76
  Q 738.12 262.13 739.67 259.89
  Q 745.51 251.41 754.69 253.39
  C 760.04 254.55 761.48 258.89 761.51 264.22
  Q 761.55 272.93 761.58 304.82
  A 1.05 1.04 90.0 0 0 762.62 305.87
  L 775.06 305.87
  A 0.93 0.93 0.0 0 0 775.99 304.93
  Q 775.87 287.69 775.91 263.51
  Q 775.91 261.80 777.39 259.58
  Q 782.88 251.36 792.47 253.29
  C 797.97 254.40 799.43 259.20 799.43 264.59
  Q 799.43 288.33 799.45 305.42
  A 0.53 0.52 0.0 0 0 799.98 305.94
  L 813.11 305.94
  A 0.56 0.56 0.0 0 0 813.67 305.38
  Q 813.52 290.46 813.61 264.10
  C 813.63 257.13 812.85 252.66 808.63 247.88
  C 805.52 244.34 801.60 241.13 796.34 240.93
  Q 791.41 240.73 789.68 240.72
  Q 780.02 240.67 772.54 248.85
  A 0.81 0.80 47.9 0 1 771.29 248.78
  C 766.10 241.73 760.08 240.27 751.56 240.95
  Q 743.43 241.60 737.70 248.41
  A 0.45 0.45 0.0 0 1 736.90 248.12"
/>
<path stroke="#8f8f8f" vector-effect="non-scaling-stroke" d="
  M 649.07 273.80
  Q 649.09 280.95 649.09 288.24
  C 649.09 293.74 652.50 297.25 656.88 301.28
  C 659.68 303.85 662.49 306.36 666.27 306.42
  Q 666.39 306.43 679.05 306.39
  Q 691.71 306.35 691.83 306.35
  C 695.61 306.26 698.40 303.73 701.19 301.15
  C 705.54 297.09 708.93 293.56 708.90 288.05
  Q 708.86 280.77 708.83 273.62
  Q 708.81 266.46 708.81 259.18
  C 708.81 253.67 705.40 250.16 701.02 246.13
  C 698.22 243.56 695.41 241.05 691.64 240.99
  Q 691.51 240.99 678.85 241.03
  Q 666.20 241.06 666.07 241.07
  C 662.29 241.15 659.50 243.68 656.71 246.27
  C 652.36 250.32 648.97 253.85 649.00 259.36
  Q 649.05 266.64 649.07 273.80"
/>
<path stroke="#8f8f8f" vector-effect="non-scaling-stroke" d="
  M 844.13 242.17
  A 0.63 0.63 0.0 0 0 843.50 241.54
  L 830.56 241.54
  A 0.63 0.63 0.0 0 0 829.93 242.17
  L 829.93 305.27
  A 0.63 0.63 0.0 0 0 830.56 305.90
  L 843.50 305.90
  A 0.63 0.63 0.0 0 0 844.13 305.27
  L 844.13 242.17"
/>
<path stroke="#3e77b4" vector-effect="non-scaling-stroke" d="
  M 374.69 181.02
  L 370.40 183.24"
/>
<path stroke="#355b86" vector-effect="non-scaling-stroke" d="
  M 370.40 183.24
  Q 370.27 183.36 369.73 183.46"
/>
<path stroke="#3e77b4" vector-effect="non-scaling-stroke" d="
  M 369.73 183.46
  L 365.02 186.10"
/>
<path stroke="#355b86" vector-effect="non-scaling-stroke" d="
  M 365.02 186.10
  C 359.39 189.72 353.86 193.42 348.03 196.54
  Q 339.27 201.21 330.93 206.27
  A 1.55 1.54 -19.6 0 0 330.19 207.82
  Q 330.69 211.42 329.75 214.60"
/>
<path stroke="#3e77b4" vector-effect="non-scaling-stroke" d="
  M 329.75 214.60
  L 327.91 217.46"
/>
<path stroke="#355b86" vector-effect="non-scaling-stroke" d="
  M 327.91 217.46
  L 322.55 221.51
  A 0.99 0.96 71.9 0 0 322.17 222.29
  L 322.08 260.41"
/>
<path stroke="#3e77b4" vector-effect="non-scaling-stroke" d="
  M 322.08 260.41
  L 322.04 263.55"
/>
<path stroke="#355b86" vector-effect="non-scaling-stroke" d="
  M 322.04 263.55
  L 322.20 301.91
  A 0.86 0.85 11.4 0 0 322.73 302.70
  Q 325.70 303.91 328.31 306.37"
/>
<path stroke="#3e77b4" vector-effect="non-scaling-stroke" d="
  M 328.31 306.37
  L 330.09 309.51"
/>
<path stroke="#355b86" vector-effect="non-scaling-stroke" d="
  M 330.09 309.51
  L 330.57 315.90
  A 1.11 1.09 -77.5 0 0 331.13 316.79
  L 365.84 336.88"
/>
<path stroke="#3e77b4" vector-effect="non-scaling-stroke" d="
  M 365.84 336.88
  Q 367.41 338.13 369.49 338.76"
/>
<path stroke="#355b86" vector-effect="non-scaling-stroke" d="
  M 369.49 338.76
  L 370.62 339.60"
/>
<path stroke="#3e77b4" vector-effect="non-scaling-stroke" d="
  M 370.62 339.60
  L 374.00 341.63"
/>
<path stroke="#355b86" vector-effect="non-scaling-stroke" d="
  M 374.00 341.63
  L 402.17 358.27
  A 0.95 0.94 47.6 0 0 403.03 358.31
  L 408.18 355.93"
/>
<path stroke="#3e77b4" vector-effect="non-scaling-stroke" d="
  M 408.18 355.93
  L 413.69 356.28"
/>
<path stroke="#355b86" vector-effect="non-scaling-stroke" d="
  M 413.69 356.28
  Q 416.77 357.25 418.36 358.56
  A 0.84 0.83 49.6 0 0 419.31 358.64
  L 444.44 343.65"
/>
<path stroke="#3e77b4" vector-effect="non-scaling-stroke" d="
  M 444.44 343.65
  L 457.77 336.55"
/>
<path stroke="#355b86" vector-effect="non-scaling-stroke" d="
  M 457.77 336.55
  Q 462.16 333.69 466.51 330.76
  C 474.28 325.50 482.37 321.43 490.39 317.03
  A 1.79 1.78 -14.5 0 0 491.31 315.47
  L 491.31 310.32"
/>
<path stroke="#3e77b4" vector-effect="non-scaling-stroke" d="
  M 491.31 310.32
  Q 492.07 307.60 493.66 306.15"
/>
<path stroke="#355b86" vector-effect="non-scaling-stroke" d="
  M 493.66 306.15
  Q 496.22 303.61 498.89 302.47
  A 0.89 0.89 0.0 0 0 499.43 301.65
  L 499.43 222.12
  A 1.32 1.31 -78.5 0 0 498.63 220.91
  Q 496.22 219.89 493.93 217.75"
/>
<path stroke="#3e77b4" vector-effect="non-scaling-stroke" d="
  M 493.93 217.75
  L 491.50 213.41"
/>
<path stroke="#355b86" vector-effect="non-scaling-stroke" d="
  M 491.50 213.41
  Q 490.78 209.88 491.09 207.56
  A 1.28 1.28 0.0 0 0 490.47 206.29
  L 454.98 185.62"
/>
<path stroke="#3e77b4" vector-effect="non-scaling-stroke" d="
  M 454.98 185.62
  Q 453.64 185.44 451.28 183.72"
/>
<path stroke="#355b86" vector-effect="non-scaling-stroke" d="
  M 451.28 183.72
  Q 450.72 183.56 450.24 183.13"
/>
<path stroke="#3e77b4" vector-effect="non-scaling-stroke" d="
  M 450.24 183.13
  L 446.28 180.82"
/>
<path stroke="#355b86" vector-effect="non-scaling-stroke" d="
  M 446.28 180.82
  Q 435.93 174.49 425.23 168.00
  Q 423.05 166.68 419.54 165.17
  A 1.95 1.95 0.0 0 0 417.96 165.17
  L 413.22 167.22"
/>
<path stroke="#3e77b4" vector-effect="non-scaling-stroke" d="
  M 413.22 167.22
  L 408.45 167.49"
/>
<path stroke="#355b86" vector-effect="non-scaling-stroke" d="
  M 408.45 167.49
  L 403.13 165.02
  A 2.10 2.09 41.9 0 0 401.17 165.12
  L 374.69 181.02"
/>
<path stroke="#283a4c" vector-effect="non-scaling-stroke" d="
  M 408.45 167.49
  Q 409.29 175.62 408.82 183.83
  C 408.49 189.72 408.54 194.31 408.81 199.48
  A 0.77 0.76 -76.5 0 1 407.66 200.19
  L 374.69 181.02"
/>
<path stroke="#283a4c" vector-effect="non-scaling-stroke" d="
  M 450.24 183.13
  L 448.29 184.93
  A 1.08 0.76 -73.4 0 1 448.10 185.08
  L 415.55 203.57
  A 0.75 0.74 -44.6 0 0 415.54 204.86
  L 440.19 219.32
  A 0.50 0.49 6.0 0 1 440.40 219.57
  L 441.60 223.00
  A 0.52 0.51 0.6 0 1 440.93 223.65
  C 436.56 222.04 433.00 219.34 428.76 216.93
  Q 422.66 213.47 413.87 207.86
  A 0.88 0.88 0.0 0 0 412.52 208.60
  L 412.36 227.14
  A 0.87 0.78 41.8 0 0 412.38 227.32
  Q 413.16 231.77 412.52 236.17"
/>
<path stroke="#3e77b4" vector-effect="non-scaling-stroke" d="
  M 412.52 236.17
  L 408.97 234.26"
/>
<path stroke="#283a4c" vector-effect="non-scaling-stroke" d="
  M 408.97 234.26
  L 408.87 208.73
  A 0.65 0.64 74.2 0 0 407.89 208.18
  L 386.55 221.19"
/>
<path stroke="#3e77b4" vector-effect="non-scaling-stroke" d="
  M 386.55 221.19
  L 382.58 218.63"
/>
<path stroke="#283a4c" vector-effect="non-scaling-stroke" d="
  M 382.58 218.63
  Q 383.55 218.30 384.56 217.45
  Q 385.83 216.36 386.38 216.02
  C 391.77 212.64 399.35 209.11 406.06 205.07
  A 0.86 0.86 0.0 0 0 405.99 203.56
  Q 398.01 199.71 392.69 196.07
  Q 388.29 193.06 382.53 189.90
  Q 377.68 187.23 372.39 183.70
  A 2.03 2.02 -24.3 0 0 371.51 183.37
  L 370.40 183.24"
/>
<path stroke="#355b86" vector-effect="non-scaling-stroke" d="
  M 382.58 218.63
  L 379.82 217.06
  A 0.90 0.89 -75.9 0 1 379.37 216.30
  Q 379.33 207.09 370.41 203.95"
/>
<path stroke="#283a4c" vector-effect="non-scaling-stroke" d="
  M 370.41 203.95
  L 369.73 183.46"
/>
<path stroke="#283a4c" vector-effect="non-scaling-stroke" d="
  M 446.28 180.82
  L 413.50 200.79
  A 0.97 0.97 0.0 0 1 412.04 199.78
  Q 413.93 189.52 412.31 179.19
  Q 411.86 176.29 413.22 167.22"
/>
<path stroke="#355b86" vector-effect="non-scaling-stroke" d="
  M 386.55 221.19
  L 408.97 234.26"
/>
<path stroke="#3e77b4" vector-effect="non-scaling-stroke" d="
  M 456.62 233.03
  L 456.79 238.76"
/>
<path stroke="#355b86" vector-effect="non-scaling-stroke" d="
  M 456.79 238.76
  L 456.42 250.68
  A 1.11 1.10 10.8 0 0 457.16 251.76
  Q 461.75 253.36 463.96 257.75"
/>
<path stroke="#3e77b4" vector-effect="non-scaling-stroke" d="
  M 463.96 257.75
  L 464.69 263.79"
/>
<path stroke="#355b86" vector-effect="non-scaling-stroke" d="
  M 464.69 263.79
  Q 463.48 270.50 457.61 273.49
  A 1.37 1.37 0.0 0 0 456.97 274.16
  Q 456.25 275.79 456.41 277.97"
/>
<path stroke="#3e77b4" vector-effect="non-scaling-stroke" d="
  M 456.41 277.97
  Q 455.68 284.35 456.41 290.80"
/>
<path stroke="#355b86" vector-effect="non-scaling-stroke" d="
  M 456.41 290.80
  L 456.63 296.03
  A 0.97 0.95 14.9 0 0 457.09 296.81
  C 462.01 299.80 465.35 302.80 464.53 309.25
  Q 463.54 317.01 455.67 319.21"
/>
<path stroke="#3e77b4" vector-effect="non-scaling-stroke" d="
  M 455.67 319.21
  Q 453.12 319.72 450.99 319.18"
/>
<path stroke="#355b86" vector-effect="non-scaling-stroke" d="
  M 450.99 319.18
  Q 441.70 316.40 441.77 307.04
  A 1.14 1.14 0.0 0 0 441.33 306.12
  Q 439.75 304.88 437.87 304.32"
/>
<path stroke="#3e77b4" vector-effect="non-scaling-stroke" d="
  M 437.87 304.32
  L 435.03 302.31"
/>
<path stroke="#355b86" vector-effect="non-scaling-stroke" d="
  M 435.03 302.31
  L 412.86 289.57"
/>
<path stroke="#3e77b4" vector-effect="non-scaling-stroke" d="
  M 412.86 289.57
  L 408.60 286.95"
/>
<path stroke="#355b86" vector-effect="non-scaling-stroke" d="
  M 408.60 286.95
  L 378.27 268.99
  A 0.94 0.94 0.0 0 0 377.03 269.25
  Q 375.24 271.79 372.06 273.15
  A 1.47 1.47 0.0 0 0 371.17 274.50
  L 371.17 292.97
  A 2.18 2.18 0.0 0 0 372.63 295.03
  Q 375.27 295.97 377.24 298.52"
/>
<path stroke="#3e77b4" vector-effect="non-scaling-stroke" d="
  M 377.24 298.52
  Q 379.58 302.44 379.13 307.10"
/>
<path stroke="#355b86" vector-effect="non-scaling-stroke" d="
  M 379.13 307.10
  Q 377.94 314.91 370.35 316.73"
/>
<path stroke="#3e77b4" vector-effect="non-scaling-stroke" d="
  M 370.35 316.73
  L 365.92 316.86"
/>
<path stroke="#355b86" vector-effect="non-scaling-stroke" d="
  M 365.92 316.86
  Q 356.21 314.49 356.66 304.49
  C 356.89 299.45 359.88 296.75 364.12 294.55
  A 0.91 0.89 -13.5 0 0 364.61 293.77
  L 364.67 289.53"
/>
<path stroke="#3e77b4" vector-effect="non-scaling-stroke" d="
  M 364.67 289.53
  L 364.59 284.88"
/>
<path stroke="#355b86" vector-effect="non-scaling-stroke" d="
  M 364.59 284.88
  L 364.79 274.79
  A 1.49 1.49 0.0 0 0 363.80 273.36
  Q 359.09 271.66 357.05 267.01"
/>
<path stroke="#3e77b4" vector-effect="non-scaling-stroke" d="
  M 357.05 267.01
  Q 356.11 263.56 356.32 260.32"
/>
<path stroke="#283a4c" vector-effect="non-scaling-stroke" d="
  M 451.28 183.72
  Q 451.93 194.02 451.44 204.12
  Q 451.36 205.82 449.57 206.82"
/>
<path stroke="#355b86" vector-effect="non-scaling-stroke" d="
  M 449.57 206.82
  Q 444.00 208.86 442.67 213.42
  Q 439.36 224.74 449.85 228.65
  A 0.70 0.70 0.0 0 1 450.31 229.31
  L 450.31 250.76
  A 1.40 1.39 -9.8 0 1 449.38 252.07
  Q 447.08 252.89 445.03 254.68
  A 1.40 1.39 -49.6 0 1 443.40 254.82
  L 412.52 236.17"
/>
<path stroke="#3e77b4" vector-effect="non-scaling-stroke" d="
  M 370.41 203.95
  L 365.43 203.91"
/>
<path stroke="#283a4c" vector-effect="non-scaling-stroke" d="
  M 365.43 203.91
  Q 366.42 197.81 366.50 189.50
  Q 366.54 186.52 365.02 186.10"
/>
<path stroke="#283a4c" vector-effect="non-scaling-stroke" d="
  M 364.59 284.88
  C 360.38 287.18 356.16 289.13 352.22 291.91
  Q 347.40 295.30 345.72 296.21
  Q 336.83 301.03 328.31 306.37"
/>
<path stroke="#283a4c" vector-effect="non-scaling-stroke" d="
  M 412.86 289.57
  L 412.45 313.53
  A 0.85 0.85 0.0 0 0 413.80 314.23
  Q 424.02 306.88 435.03 302.31"
/>
<path stroke="#283a4c" vector-effect="non-scaling-stroke" d="
  M 437.87 304.32
  L 415.30 317.41
  A 0.59 0.59 0.0 0 0 415.40 318.48
  Q 417.04 319.07 420.72 321.27
  Q 428.12 325.69 432.43 328.58
  Q 435.42 330.59 447.02 337.23
  Q 448.21 337.91 449.63 339.11
  A 1.48 1.47 -78.4 0 0 451.99 337.55
  Q 451.43 335.68 452.08 333.34
  A 2.93 2.81 -37.4 0 0 452.19 332.63
  Q 452.44 325.36 450.99 319.18"
/>
<path stroke="#283a4c" vector-effect="non-scaling-stroke" d="
  M 455.67 319.21
  Q 454.01 326.13 454.83 335.48
  A 1.76 1.76 0.0 0 0 455.89 336.93
  Q 456.30 337.10 457.77 336.55"
/>
<path stroke="#283a4c" vector-effect="non-scaling-stroke" d="
  M 444.44 343.65
  L 446.02 342.39
  A 0.98 0.98 0.0 0 0 445.90 340.78
  L 413.68 321.88
  A 0.74 0.73 -76.2 0 0 412.58 322.55
  C 412.87 328.66 413.22 332.49 412.46 337.65
  Q 411.88 341.56 411.89 343.50
  Q 411.91 349.49 413.69 356.28"
/>
<path stroke="#283a4c" vector-effect="non-scaling-stroke" d="
  M 408.18 355.93
  Q 409.03 351.55 409.20 346.50
  Q 409.35 342.28 408.99 338.66
  C 408.36 332.22 408.74 329.65 409.01 322.75
  Q 409.02 322.57 408.90 322.29
  A 0.91 0.91 0.0 0 0 407.55 321.89
  Q 400.88 326.45 394.40 329.88
  Q 392.04 331.12 384.34 335.97
  Q 379.45 339.06 374.00 341.63"
/>
<path stroke="#283a4c" vector-effect="non-scaling-stroke" d="
  M 370.62 339.60
  Q 374.34 336.54 377.68 334.91
  Q 386.07 330.80 390.64 327.74
  C 396.27 323.97 400.19 322.02 405.71 318.59
  A 0.87 0.86 44.4 0 0 405.69 317.11
  L 381.28 302.80
  A 1.24 1.24 0.0 0 0 379.42 304.02
  Q 379.69 306.19 379.13 307.10"
/>
<path stroke="#283a4c" vector-effect="non-scaling-stroke" d="
  M 454.98 185.62
  L 455.14 204.76
  A 1.01 0.99 -71.1 0 0 455.50 205.51
  L 456.78 206.59"
/>
<path stroke="#3e77b4" vector-effect="non-scaling-stroke" d="
  M 456.78 206.59
  Q 453.15 205.58 449.57 206.82"
/>
<path stroke="#283a4c" vector-effect="non-scaling-stroke" d="
  M 491.31 310.32
  L 491.09 308.72
  A 1.03 1.02 -82.1 0 0 490.50 307.93
  Q 485.91 305.85 482.26 303.56
  Q 479.11 301.58 473.98 298.90
  Q 466.78 295.14 458.85 289.61
  C 457.98 289.00 457.83 288.28 457.10 287.58
  A 0.31 0.31 0.0 0 0 456.57 287.79
  L 456.41 290.80"
/>
<path stroke="#283a4c" vector-effect="non-scaling-stroke" d="
  M 408.60 286.95
  L 408.83 313.65
  A 0.62 0.61 -75.9 0 1 407.92 314.20
  Q 395.49 307.36 385.35 300.08
  A 0.47 0.42 66.7 0 0 385.20 300.01
  L 380.64 298.66
  A 0.93 0.93 0.0 0 0 380.14 298.66
  Q 378.62 299.05 377.24 298.52"
/>
<path stroke="#283a4c" vector-effect="non-scaling-stroke" d="
  M 365.92 316.86
  Q 366.19 324.78 365.92 332.99
  Q 365.90 333.72 366.15 334.97
  Q 366.44 336.39 365.84 336.88"
/>
<path stroke="#283a4c" vector-effect="non-scaling-stroke" d="
  M 357.05 267.01
  L 355.91 264.29
  A 1.15 1.14 75.6 0 0 354.75 263.60
  Q 351.43 263.95 350.25 263.90
  Q 341.99 263.58 324.02 263.29
  A 1.74 1.69 -31.7 0 1 323.39 263.15
  Q 323.18 263.05 323.07 263.00
  A 0.62 0.61 -59.4 0 0 322.26 263.21
  L 322.04 263.55"
/>
<path stroke="#283a4c" vector-effect="non-scaling-stroke" d="
  M 364.67 289.53
  L 330.09 309.51"
/>
<path stroke="#283a4c" vector-effect="non-scaling-stroke" d="
  M 493.93 217.75
  Q 486.68 220.91 480.27 225.79
  Q 478.25 227.33 471.59 230.66
  Q 468.73 232.09 464.24 234.80
  Q 460.64 236.96 456.79 238.76"
/>
<path stroke="#355b86" vector-effect="non-scaling-stroke" d="
  M 365.43 203.91
  C 359.40 205.77 356.03 209.99 356.54 216.44
  Q 357.06 223.11 363.77 226.23
  A 1.68 1.67 -77.6 0 1 364.74 227.75
  L 364.74 250.31
  A 1.23 1.22 -11.8 0 1 364.00 251.43
  Q 358.06 253.96 356.32 260.32"
/>
<path stroke="#283a4c" vector-effect="non-scaling-stroke" d="
  M 356.32 260.32
  L 322.08 260.41"
/>
<path stroke="#283a4c" vector-effect="non-scaling-stroke" d="
  M 327.91 217.46
  Q 336.50 221.99 344.60 227.41
  Q 346.92 228.96 361.70 236.57
  A 0.99 0.99 0.0 0 0 363.14 235.58
  L 363.14 235.55
  A 3.79 3.77 -76.5 0 0 361.46 232.79
  C 353.94 227.85 346.45 223.91 338.63 219.45
  Q 334.21 216.93 329.75 214.60"
/>
<path stroke="#283a4c" vector-effect="non-scaling-stroke" d="
  M 369.49 338.76
  Q 370.49 336.31 370.33 334.25
  Q 369.56 324.50 370.35 316.73"
/>
<path stroke="#283a4c" vector-effect="non-scaling-stroke" d="
  M 491.50 213.41
  Q 487.77 217.51 482.80 219.79
  Q 471.44 225.00 463.61 230.96
  A 3.14 3.05 15.6 0 1 462.80 231.40
  Q 459.85 232.43 457.50 234.44
  A 0.40 0.40 0.0 0 1 456.85 234.22
  L 456.62 233.03"
/>
<path stroke="#355b86" vector-effect="non-scaling-stroke" d="
  M 456.62 233.03
  Q 456.35 231.08 456.80 229.25
  A 1.15 1.13 84.6 0 1 457.43 228.48
  C 461.42 226.68 464.04 223.72 464.53 219.12
  Q 465.48 210.35 456.78 206.59"
/>
<path stroke="#283a4c" vector-effect="non-scaling-stroke" d="
  M 493.66 306.15
  Q 487.89 303.47 482.65 299.75
  Q 480.24 298.03 479.27 297.55
  Q 477.27 296.57 475.69 295.45
  Q 474.92 294.89 470.09 292.53
  Q 463.56 289.35 459.25 286.57
  Q 457.56 285.49 456.80 284.69
  A 1.31 1.30 22.9 0 1 456.43 283.78
  L 456.41 277.97"
/>
<path stroke="#283a4c" vector-effect="non-scaling-stroke" d="
  M 464.69 263.79
  L 497.18 263.63
  A 1.14 1.13 18.7 0 0 498.04 263.21
  Q 498.43 262.73 498.92 262.60
  A 0.53 0.52 64.5 0 0 499.21 261.77
  Q 497.99 260.14 497.10 260.14
  Q 482.07 260.30 465.70 259.50
  A 1.28 1.25 -14.4 0 1 464.68 258.91
  L 463.96 257.75"
/>
<path stroke="#3e77b4" vector-effect="non-scaling-stroke" d="
  M 408.38 279.49
  L 412.96 281.84"
/>
<path stroke="#355b86" vector-effect="non-scaling-stroke" d="
  M 412.96 281.84
  L 443.48 299.92
  A 1.20 1.20 0.0 0 0 444.89 299.79
  Q 447.06 297.88 449.34 296.96
  A 1.57 1.56 -9.2 0 0 450.30 295.63
  Q 451.08 285.28 450.21 274.58
  A 1.39 1.39 0.0 0 0 449.24 273.36
  Q 444.50 271.88 442.72 266.98
  C 441.93 264.81 442.39 263.00 441.70 261.18
  A 1.61 1.60 5.0 0 0 441.00 260.35
  L 412.85 244.03"
/>
<path stroke="#3e77b4" vector-effect="non-scaling-stroke" d="
  M 412.85 244.03
  L 408.58 241.78"
/>
<path stroke="#355b86" vector-effect="non-scaling-stroke" d="
  M 408.58 241.78
  Q 393.99 232.22 378.04 223.81
  A 1.66 1.65 42.8 0 0 376.38 223.87
  L 371.64 226.85
  A 1.11 1.09 74.5 0 0 371.12 227.79
  L 371.12 249.17
  A 2.66 2.64 15.3 0 0 372.43 251.45
  Q 379.64 255.67 379.22 261.55
  A 1.51 1.50 17.0 0 0 379.97 262.95
  L 408.38 279.49"
/>
<path stroke="#283a4c" vector-effect="non-scaling-stroke" d="
  M 408.58 241.78
  L 408.81 259.19
  A 1.02 1.02 0.0 0 1 407.79 260.22
  L 390.36 260.22
  A 0.79 0.78 64.9 0 0 389.86 261.61
  Q 391.46 262.93 394.27 263.37
  Q 394.44 263.40 408.03 263.38
  A 0.90 0.89 -89.1 0 1 408.92 264.31
  L 408.38 279.49"
/>
<path stroke="#283a4c" vector-effect="non-scaling-stroke" d="
  M 412.85 244.03
  L 412.64 259.27
  A 0.86 0.85 88.5 0 0 413.55 260.14
  C 418.89 259.80 426.10 258.86 429.22 262.21
  A 0.71 0.70 68.4 0 1 428.71 263.40
  L 413.52 263.40
  A 1.05 1.05 0.0 0 0 412.47 264.48
  L 412.96 281.84"
/>
<path stroke="#8f8f8f" vector-effect="non-scaling-stroke" d="
  M 960.55 272.18
  A 0.54 0.54 0.0 0 0 961.07 272.89
  L 985.06 273.02
  A 0.54 0.54 0.0 0 0 985.57 272.31
  L 973.77 234.74
  A 0.54 0.54 0.0 0 0 972.75 234.74
  L 960.55 272.18"
/>
<path stroke="#8f8f8f" vector-effect="non-scaling-stroke" d="
  M 1036.80 230.79
  L 1036.70 292.75
  A 0.71 0.71 0.0 0 0 1037.40 293.46
  L 1060.87 293.50
  A 14.48 14.16 0.1 0 0 1075.38 279.36
  L 1075.44 244.30
  A 14.48 14.16 0.1 0 0 1060.99 230.12
  L 1037.52 230.08
  A 0.71 0.71 0.0 0 0 1036.80 230.79"
/>
<path stroke="#8f8f8f" vector-effect="non-scaling-stroke" d="
  M 694.5505 262.5427
  A 9.35 9.35 0.0 0 0 685.1842 253.2090
  L 672.5442 253.2311
  A 9.35 9.35 0.0 0 0 663.2105 262.5974
  L 663.2495 284.9373
  A 9.35 9.35 0.0 0 0 672.6158 294.2710
  L 685.2558 294.2489
  A 9.35 9.35 0.0 0 0 694.5895 284.8826
  L 694.5505 262.5427"
/>
</g>
<path fill="#1e1e1e" d="
  M 1408.00 0.00
  L 1408.00 487.00
  L 0.00 487.00
  L 0.00 0.00
  L 1408.00 0.00
  Z
  M 421.95 152.94
  Q 419.08 144.52 409.99 144.59
  C 402.90 144.65 398.27 151.50 399.36 158.19
  A 1.64 1.64 0.0 0 1 398.56 159.86
  L 327.35 200.98
  A 1.00 0.99 48.4 0 1 326.25 200.91
  C 318.93 195.38 307.33 199.68 307.41 209.69
  Q 307.47 217.91 315.13 220.98
  A 0.95 0.95 0.0 0 1 315.72 221.86
  L 315.72 301.70
  A 1.06 1.05 80.3 0 1 315.02 302.70
  C 300.14 308.04 309.12 331.20 324.72 323.36
  C 325.60 322.92 326.09 322.34 326.74 322.01
  A 1.17 1.17 0.0 0 1 327.86 322.04
  L 398.67 363.46
  A 1.65 1.63 20.3 0 1 399.46 365.16
  C 396.98 379.24 416.42 384.49 421.67 371.28
  C 422.40 369.44 422.13 367.03 422.04 364.88
  A 1.28 1.26 74.3 0 1 422.68 363.72
  C 429.14 359.99 439.36 353.56 447.69 349.09
  C 455.59 344.86 461.73 340.31 469.39 336.34
  Q 480.57 330.54 493.09 322.17
  A 1.77 1.76 46.0 0 1 495.09 322.21
  C 500.79 326.35 508.37 325.38 512.44 319.50
  Q 514.08 317.12 514.00 313.59
  Q 513.82 306.02 506.24 302.58
  A 1.01 1.01 0.0 0 1 505.65 301.66
  L 505.65 221.94
  A 0.77 0.77 0.0 0 1 506.14 221.22
  C 512.56 218.70 515.58 212.17 513.27 205.61
  Q 511.83 201.55 507.86 199.72
  Q 501.18 196.65 495.04 201.10
  A 1.16 1.14 41.9 0 1 493.77 201.16
  L 422.93 159.61
  A 1.63 1.63 0.0 0 1 422.15 157.89
  Q 422.57 155.69 421.96 152.96
  A 0.03 0.02 31.7 0 1 421.95 152.94
  Z
  M 828.3683 220.7801
  A 9.18 8.91 -159.2 0 0 833.7860 232.3693
  A 9.18 8.91 -159.2 0 0 845.5317 227.2999
  A 9.18 8.91 -159.2 0 0 840.1140 215.7107
  A 9.18 8.91 -159.2 0 0 828.3683 220.7801
  Z
  M 928.73 244.80
  L 928.68 234.90
  A 2.27 1.99 41.3 0 0 928.61 234.36
  Q 927.96 231.81 925.89 229.39
  Q 921.70 224.46 916.62 219.87
  Q 913.63 217.17 909.75 217.14
  Q 901.01 217.08 886.95 217.12
  C 881.02 217.14 877.08 216.99 873.33 220.05
  Q 868.68 223.84 863.11 230.79
  Q 860.63 233.88 860.62 237.52
  Q 860.61 261.29 860.57 283.48
  C 860.56 285.91 860.97 289.21 862.10 290.97
  C 865.74 296.62 873.74 306.29 881.27 306.43
  Q 893.44 306.66 907.29 306.51
  C 909.63 306.49 913.19 305.98 914.65 304.90
  Q 921.32 299.96 926.11 293.49
  C 929.44 289.00 928.62 284.46 928.62 278.51
  A 0.90 0.90 0.0 0 0 927.72 277.61
  L 915.08 277.61
  A 0.65 0.65 0.0 0 0 914.43 278.24
  C 914.36 281.19 914.59 284.27 913.38 286.73
  Q 910.66 292.22 905.74 293.60
  A 3.98 3.96 -52.8 0 1 904.66 293.75
  L 885.34 293.75
  A 2.43 2.15 48.6 0 1 884.78 293.68
  Q 877.39 291.59 875.03 283.89
  A 2.86 2.75 -54.2 0 1 874.92 283.11
  L 874.92 240.40
  A 1.40 0.95 60.8 0 1 874.94 240.17
  Q 876.66 233.04 883.54 229.99
  A 2.80 2.76 -56.8 0 1 884.69 229.74
  Q 900.01 229.76 900.86 229.72
  Q 905.68 229.47 907.95 230.85
  Q 911.20 232.81 913.19 236.00
  C 914.67 238.37 914.20 241.83 914.32 244.62
  A 0.74 0.73 88.8 0 0 915.05 245.33
  L 928.21 245.33
  A 0.52 0.52 0.0 0 0 928.73 244.80
  Z
  M 565.31 218.28
  L 565.31 305.44
  A 0.45 0.44 -0.0 0 0 565.76 305.88
  L 578.69 305.88
  A 0.96 0.96 0.0 0 0 579.65 304.92
  L 579.65 243.35
  A 0.33 0.33 0.0 0 1 580.26 243.17
  C 588.29 255.45 593.27 262.86 600.82 275.24
  C 608.04 287.08 611.99 292.77 619.42 305.19
  A 1.41 1.41 0.0 0 0 620.63 305.88
  L 632.76 305.88
  A 0.99 0.98 -90.0 0 0 633.74 304.89
  L 633.74 218.04
  A 0.37 0.36 0.0 0 0 633.37 217.68
  L 619.95 217.68
  A 0.28 0.27 -0.0 0 0 619.67 217.95
  L 619.67 279.77
  A 0.44 0.44 0.0 0 1 618.86 280.00
  L 580.04 218.17
  A 1.19 1.18 73.7 0 0 579.04 217.62
  L 565.97 217.62
  A 0.66 0.66 0.0 0 0 565.31 218.28
  Z
  M 973.29 285.12
  Q 987.73 285.12 989.21 285.12
  A 1.05 1.04 80.0 0 1 990.18 285.81
  L 996.98 305.24
  A 0.95 0.93 -9.6 0 0 997.87 305.86
  L 1011.09 305.87
  A 0.57 0.57 0.0 0 0 1011.63 305.11
  L 981.16 218.15
  A 0.73 0.73 0.0 0 0 980.47 217.66
  Q 976.94 217.62 973.28 217.62
  Q 969.62 217.62 966.09 217.66
  A 0.73 0.73 0.0 0 0 965.40 218.15
  L 934.95 305.12
  A 0.57 0.57 0.0 0 0 935.49 305.88
  L 948.71 305.86
  A 0.95 0.93 9.6 0 0 949.60 305.24
  L 956.39 285.81
  A 1.05 1.04 -80.0 0 1 957.37 285.12
  Q 958.85 285.12 973.29 285.12
  Z
  M 1022.46 218.08
  L 1022.62 305.70
  A 0.36 0.36 0.0 0 0 1022.98 306.06
  L 1063.17 305.99
  A 26.75 25.83 -0.1 0 0 1089.87 280.11
  L 1089.81 243.43
  A 26.75 25.83 -0.1 0 0 1063.01 217.65
  L 1022.82 217.72
  A 0.36 0.36 0.0 0 0 1022.46 218.08
  Z
  M 736.90 248.12
  L 736.90 242.44
  A 0.78 0.78 0.0 0 0 736.12 241.66
  L 724.37 241.66
  A 0.72 0.72 0.0 0 0 723.65 242.38
  L 723.65 305.16
  A 0.76 0.76 0.0 0 0 724.41 305.92
  L 737.62 305.92
  A 0.49 0.49 0.0 0 0 738.11 305.42
  Q 737.90 288.98 738.11 263.76
  Q 738.12 262.13 739.67 259.89
  Q 745.51 251.41 754.69 253.39
  C 760.04 254.55 761.48 258.89 761.51 264.22
  Q 761.55 272.93 761.58 304.82
  A 1.05 1.04 90.0 0 0 762.62 305.87
  L 775.06 305.87
  A 0.93 0.93 0.0 0 0 775.99 304.93
  Q 775.87 287.69 775.91 263.51
  Q 775.91 261.80 777.39 259.58
  Q 782.88 251.36 792.47 253.29
  C 797.97 254.40 799.43 259.20 799.43 264.59
  Q 799.43 288.33 799.45 305.42
  A 0.53 0.52 0.0 0 0 799.98 305.94
  L 813.11 305.94
  A 0.56 0.56 0.0 0 0 813.67 305.38
  Q 813.52 290.46 813.61 264.10
  C 813.63 257.13 812.85 252.66 808.63 247.88
  C 805.52 244.34 801.60 241.13 796.34 240.93
  Q 791.41 240.73 789.68 240.72
  Q 780.02 240.67 772.54 248.85
  A 0.81 0.80 47.9 0 1 771.29 248.78
  C 766.10 241.73 760.08 240.27 751.56 240.95
  Q 743.43 241.60 737.70 248.41
  A 0.45 0.45 0.0 0 1 736.90 248.12
  Z
  M 649.07 273.80
  Q 649.09 280.95 649.09 288.24
  C 649.09 293.74 652.50 297.25 656.88 301.28
  C 659.68 303.85 662.49 306.36 666.27 306.42
  Q 666.39 306.43 679.05 306.39
  Q 691.71 306.35 691.83 306.35
  C 695.61 306.26 698.40 303.73 701.19 301.15
  C 705.54 297.09 708.93 293.56 708.90 288.05
  Q 708.86 280.77 708.83 273.62
  Q 708.81 266.46 708.81 259.18
  C 708.81 253.67 705.40 250.16 701.02 246.13
  C 698.22 243.56 695.41 241.05 691.64 240.99
  Q 691.51 240.99 678.85 241.03
  Q 666.20 241.06 666.07 241.07
  C 662.29 241.15 659.50 243.68 656.71 246.27
  C 652.36 250.32 648.97 253.85 649.00 259.36
  Q 649.05 266.64 649.07 273.80
  Z
  M 844.13 242.17
  A 0.63 0.63 0.0 0 0 843.50 241.54
  L 830.56 241.54
  A 0.63 0.63 0.0 0 0 829.93 242.17
  L 829.93 305.27
  A 0.63 0.63 0.0 0 0 830.56 305.90
  L 843.50 305.90
  A 0.63 0.63 0.0 0 0 844.13 305.27
  L 844.13 242.17
  Z"
/>
<path fill="#4b98ed" d="
  M 421.96 152.96
  Q 422.57 155.69 422.15 157.89
  A 1.63 1.63 0.0 0 0 422.93 159.61
  L 493.77 201.16
  A 1.16 1.14 41.9 0 0 495.04 201.10
  Q 501.18 196.65 507.86 199.72
  Q 511.83 201.55 513.27 205.61
  C 515.58 212.17 512.56 218.70 506.14 221.22
  A 0.77 0.77 0.0 0 0 505.65 221.94
  L 505.65 301.66
  A 1.01 1.01 0.0 0 0 506.24 302.58
  Q 513.82 306.02 514.00 313.59
  Q 514.08 317.12 512.44 319.50
  C 508.37 325.38 500.79 326.35 495.09 322.21
  A 1.77 1.76 46.0 0 0 493.09 322.17
  Q 480.57 330.54 469.39 336.34
  C 461.73 340.31 455.59 344.86 447.69 349.09
  C 439.36 353.56 429.14 359.99 422.68 363.72
  A 1.28 1.26 74.3 0 0 422.04 364.88
  C 422.13 367.03 422.40 369.44 421.67 371.28
  C 416.42 384.49 396.98 379.24 399.46 365.16
  A 1.65 1.63 20.3 0 0 398.67 363.46
  L 327.86 322.04
  A 1.17 1.17 0.0 0 0 326.74 322.01
  C 326.09 322.34 325.60 322.92 324.72 323.36
  C 309.12 331.20 300.14 308.04 315.02 302.70
  A 1.06 1.05 80.3 0 0 315.72 301.70
  L 315.72 221.86
  A 0.95 0.95 0.0 0 0 315.13 220.98
  Q 307.47 217.91 307.41 209.69
  C 307.33 199.68 318.93 195.38 326.25 200.91
  A 1.00 0.99 48.4 0 0 327.35 200.98
  L 398.56 159.86
  A 1.64 1.64 0.0 0 0 399.36 158.19
  C 398.27 151.50 402.90 144.65 409.99 144.59
  Q 419.08 144.52 421.95 152.94
  A 0.03 0.02 31.7 0 0 421.96 152.96
  Z
  M 374.69 181.02
  L 370.40 183.24
  Q 370.27 183.36 369.73 183.46
  L 365.02 186.10
  C 359.39 189.72 353.86 193.42 348.03 196.54
  Q 339.27 201.21 330.93 206.27
  A 1.55 1.54 -19.6 0 0 330.19 207.82
  Q 330.69 211.42 329.75 214.60
  L 327.91 217.46
  L 322.55 221.51
  A 0.99 0.96 71.9 0 0 322.17 222.29
  L 322.08 260.41
  L 322.04 263.55
  L 322.20 301.91
  A 0.86 0.85 11.4 0 0 322.73 302.70
  Q 325.70 303.91 328.31 306.37
  L 330.09 309.51
  L 330.57 315.90
  A 1.11 1.09 -77.5 0 0 331.13 316.79
  L 365.84 336.88
  Q 367.41 338.13 369.49 338.76
  L 370.62 339.60
  L 374.00 341.63
  L 402.17 358.27
  A 0.95 0.94 47.6 0 0 403.03 358.31
  L 408.18 355.93
  L 413.69 356.28
  Q 416.77 357.25 418.36 358.56
  A 0.84 0.83 49.6 0 0 419.31 358.64
  L 444.44 343.65
  L 457.77 336.55
  Q 462.16 333.69 466.51 330.76
  C 474.28 325.50 482.37 321.43 490.39 317.03
  A 1.79 1.78 -14.5 0 0 491.31 315.47
  L 491.31 310.32
  Q 492.07 307.60 493.66 306.15
  Q 496.22 303.61 498.89 302.47
  A 0.89 0.89 0.0 0 0 499.43 301.65
  L 499.43 222.12
  A 1.32 1.31 -78.5 0 0 498.63 220.91
  Q 496.22 219.89 493.93 217.75
  L 491.50 213.41
  Q 490.78 209.88 491.09 207.56
  A 1.28 1.28 0.0 0 0 490.47 206.29
  L 454.98 185.62
  Q 453.64 185.44 451.28 183.72
  Q 450.72 183.56 450.24 183.13
  L 446.28 180.82
  Q 435.93 174.49 425.23 168.00
  Q 423.05 166.68 419.54 165.17
  A 1.95 1.95 0.0 0 0 417.96 165.17
  L 413.22 167.22
  L 408.45 167.49
  L 403.13 165.02
  A 2.10 2.09 41.9 0 0 401.17 165.12
  L 374.69 181.02
  Z"
/>
<path fill="#1e1e1e" d="
  M 408.45 167.49
  Q 409.29 175.62 408.82 183.83
  C 408.49 189.72 408.54 194.31 408.81 199.48
  A 0.77 0.76 -76.5 0 1 407.66 200.19
  L 374.69 181.02
  L 401.17 165.12
  A 2.10 2.09 41.9 0 1 403.13 165.02
  L 408.45 167.49
  Z"
/>
<path fill="#1e1e1e" d="
  M 446.28 180.82
  L 413.50 200.79
  A 0.97 0.97 0.0 0 1 412.04 199.78
  Q 413.93 189.52 412.31 179.19
  Q 411.86 176.29 413.22 167.22
  L 417.96 165.17
  A 1.95 1.95 0.0 0 1 419.54 165.17
  Q 423.05 166.68 425.23 168.00
  Q 435.93 174.49 446.28 180.82
  Z"
/>
<path fill="#31557a" d="
  M 413.22 167.22
  Q 411.86 176.29 412.31 179.19
  Q 413.93 189.52 412.04 199.78
  A 0.97 0.97 0.0 0 0 413.50 200.79
  L 446.28 180.82
  L 450.24 183.13
  L 448.29 184.93
  A 1.08 0.76 -73.4 0 1 448.10 185.08
  L 415.55 203.57
  A 0.75 0.74 -44.6 0 0 415.54 204.86
  L 440.19 219.32
  A 0.50 0.49 6.0 0 1 440.40 219.57
  L 441.60 223.00
  A 0.52 0.51 0.6 0 1 440.93 223.65
  C 436.56 222.04 433.00 219.34 428.76 216.93
  Q 422.66 213.47 413.87 207.86
  A 0.88 0.88 0.0 0 0 412.52 208.60
  L 412.36 227.14
  A 0.87 0.78 41.8 0 0 412.38 227.32
  Q 413.16 231.77 412.52 236.17
  L 408.97 234.26
  L 408.87 208.73
  A 0.65 0.64 74.2 0 0 407.89 208.18
  L 386.55 221.19
  L 382.58 218.63
  Q 383.55 218.30 384.56 217.45
  Q 385.83 216.36 386.38 216.02
  C 391.77 212.64 399.35 209.11 406.06 205.07
  A 0.86 0.86 0.0 0 0 405.99 203.56
  Q 398.01 199.71 392.69 196.07
  Q 388.29 193.06 382.53 189.90
  Q 377.68 187.23 372.39 183.70
  A 2.03 2.02 -24.3 0 0 371.51 183.37
  L 370.40 183.24
  L 374.69 181.02
  L 407.66 200.19
  A 0.77 0.76 -76.5 0 0 408.81 199.48
  C 408.54 194.31 408.49 189.72 408.82 183.83
  Q 409.29 175.62 408.45 167.49
  L 413.22 167.22
  Z"
/>
<path fill="#1e1e1e" d="
  M 370.40 183.24
  L 371.51 183.37
  A 2.03 2.02 -24.3 0 1 372.39 183.70
  Q 377.68 187.23 382.53 189.90
  Q 388.29 193.06 392.69 196.07
  Q 398.01 199.71 405.99 203.56
  A 0.86 0.86 0.0 0 1 406.06 205.07
  C 399.35 209.11 391.77 212.64 386.38 216.02
  Q 385.83 216.36 384.56 217.45
  Q 383.55 218.30 382.58 218.63
  L 379.82 217.06
  A 0.90 0.89 -75.9 0 1 379.37 216.30
  Q 379.33 207.09 370.41 203.95
  L 369.73 183.46
  Q 370.27 183.36 370.40 183.24
  Z"
/>
<path fill="#1e1e1e" d="
  M 450.24 183.13
  Q 450.72 183.56 451.28 183.72
  Q 451.93 194.02 451.44 204.12
  Q 451.36 205.82 449.57 206.82
  Q 444.00 208.86 442.67 213.42
  Q 439.36 224.74 449.85 228.65
  A 0.70 0.70 0.0 0 1 450.31 229.31
  L 450.31 250.76
  A 1.40 1.39 -9.8 0 1 449.38 252.07
  Q 447.08 252.89 445.03 254.68
  A 1.40 1.39 -49.6 0 1 443.40 254.82
  L 412.52 236.17
  Q 413.16 231.77 412.38 227.32
  A 0.87 0.78 41.8 0 1 412.36 227.14
  L 412.52 208.60
  A 0.88 0.88 0.0 0 1 413.87 207.86
  Q 422.66 213.47 428.76 216.93
  C 433.00 219.34 436.56 222.04 440.93 223.65
  A 0.52 0.51 0.6 0 0 441.60 223.00
  L 440.40 219.57
  A 0.50 0.49 6.0 0 0 440.19 219.32
  L 415.54 204.86
  A 0.75 0.74 -44.6 0 1 415.55 203.57
  L 448.10 185.08
  A 1.08 0.76 -73.4 0 0 448.29 184.93
  L 450.24 183.13
  Z"
/>
<path fill="#31557a" d="
  M 369.73 183.46
  L 370.41 203.95
  L 365.43 203.91
  Q 366.42 197.81 366.50 189.50
  Q 366.54 186.52 365.02 186.10
  L 369.73 183.46
  Z"
/>
<path fill="#31557a" d="
  M 454.98 185.62
  L 455.14 204.76
  A 1.01 0.99 -71.1 0 0 455.50 205.51
  L 456.78 206.59
  Q 453.15 205.58 449.57 206.82
  Q 451.36 205.82 451.44 204.12
  Q 451.93 194.02 451.28 183.72
  Q 453.64 185.44 454.98 185.62
  Z"
/>
<path fill="#1e1e1e" d="
  M 365.02 186.10
  Q 366.54 186.52 366.50 189.50
  Q 366.42 197.81 365.43 203.91
  C 359.40 205.77 356.03 209.99 356.54 216.44
  Q 357.06 223.11 363.77 226.23
  A 1.68 1.67 -77.6 0 1 364.74 227.75
  L 364.74 250.31
  A 1.23 1.22 -11.8 0 1 364.00 251.43
  Q 358.06 253.96 356.32 260.32
  L 322.08 260.41
  L 322.17 222.29
  A 0.99 0.96 71.9 0 1 322.55 221.51
  L 327.91 217.46
  Q 336.50 221.99 344.60 227.41
  Q 346.92 228.96 361.70 236.57
  A 0.99 0.99 0.0 0 0 363.14 235.58
  L 363.14 235.55
  A 3.79 3.77 -76.5 0 0 361.46 232.79
  C 353.94 227.85 346.45 223.91 338.63 219.45
  Q 334.21 216.93 329.75 214.60
  Q 330.69 211.42 330.19 207.82
  A 1.55 1.54 -19.6 0 1 330.93 206.27
  Q 339.27 201.21 348.03 196.54
  C 353.86 193.42 359.39 189.72 365.02 186.10
  Z"
/>
<path fill="#1e1e1e" d="
  M 454.98 185.62
  L 490.47 206.29
  A 1.28 1.28 0.0 0 1 491.09 207.56
  Q 490.78 209.88 491.50 213.41
  Q 487.77 217.51 482.80 219.79
  Q 471.44 225.00 463.61 230.96
  A 3.14 3.05 15.6 0 1 462.80 231.40
  Q 459.85 232.43 457.50 234.44
  A 0.40 0.40 0.0 0 1 456.85 234.22
  L 456.62 233.03
  Q 456.35 231.08 456.80 229.25
  A 1.15 1.13 84.6 0 1 457.43 228.48
  C 461.42 226.68 464.04 223.72 464.53 219.12
  Q 465.48 210.35 456.78 206.59
  L 455.50 205.51
  A 1.01 0.99 -71.1 0 1 455.14 204.76
  L 454.98 185.62
  Z"
/>
<path fill="#4b98ed" d="
  M 365.43 203.91
  L 370.41 203.95
  Q 379.33 207.09 379.37 216.30
  A 0.90 0.89 -75.9 0 0 379.82 217.06
  L 382.58 218.63
  L 386.55 221.19
  L 408.97 234.26
  L 412.52 236.17
  L 443.40 254.82
  A 1.40 1.39 -49.6 0 0 445.03 254.68
  Q 447.08 252.89 449.38 252.07
  A 1.40 1.39 -9.8 0 0 450.31 250.76
  L 450.31 229.31
  A 0.70 0.70 0.0 0 0 449.85 228.65
  Q 439.36 224.74 442.67 213.42
  Q 444.00 208.86 449.57 206.82
  Q 453.15 205.58 456.78 206.59
  Q 465.48 210.35 464.53 219.12
  C 464.04 223.72 461.42 226.68 457.43 228.48
  A 1.15 1.13 84.6 0 0 456.80 229.25
  Q 456.35 231.08 456.62 233.03
  L 456.79 238.76
  L 456.42 250.68
  A 1.11 1.10 10.8 0 0 457.16 251.76
  Q 461.75 253.36 463.96 257.75
  L 464.69 263.79
  Q 463.48 270.50 457.61 273.49
  A 1.37 1.37 0.0 0 0 456.97 274.16
  Q 456.25 275.79 456.41 277.97
  Q 455.68 284.35 456.41 290.80
  L 456.63 296.03
  A 0.97 0.95 14.9 0 0 457.09 296.81
  C 462.01 299.80 465.35 302.80 464.53 309.25
  Q 463.54 317.01 455.67 319.21
  Q 453.12 319.72 450.99 319.18
  Q 441.70 316.40 441.77 307.04
  A 1.14 1.14 0.0 0 0 441.33 306.12
  Q 439.75 304.88 437.87 304.32
  L 435.03 302.31
  L 412.86 289.57
  L 408.60 286.95
  L 378.27 268.99
  A 0.94 0.94 0.0 0 0 377.03 269.25
  Q 375.24 271.79 372.06 273.15
  A 1.47 1.47 0.0 0 0 371.17 274.50
  L 371.17 292.97
  A 2.18 2.18 0.0 0 0 372.63 295.03
  Q 375.27 295.97 377.24 298.52
  Q 379.58 302.44 379.13 307.10
  Q 377.94 314.91 370.35 316.73
  L 365.92 316.86
  Q 356.21 314.49 356.66 304.49
  C 356.89 299.45 359.88 296.75 364.12 294.55
  A 0.91 0.89 -13.5 0 0 364.61 293.77
  L 364.67 289.53
  L 364.59 284.88
  L 364.79 274.79
  A 1.49 1.49 0.0 0 0 363.80 273.36
  Q 359.09 271.66 357.05 267.01
  Q 356.11 263.56 356.32 260.32
  Q 358.06 253.96 364.00 251.43
  A 1.23 1.22 -11.8 0 0 364.74 250.31
  L 364.74 227.75
  A 1.68 1.67 -77.6 0 0 363.77 226.23
  Q 357.06 223.11 356.54 216.44
  C 356.03 209.99 359.40 205.77 365.43 203.91
  Z
  M 408.38 279.49
  L 412.96 281.84
  L 443.48 299.92
  A 1.20 1.20 0.0 0 0 444.89 299.79
  Q 447.06 297.88 449.34 296.96
  A 1.57 1.56 -9.2 0 0 450.30 295.63
  Q 451.08 285.28 450.21 274.58
  A 1.39 1.39 0.0 0 0 449.24 273.36
  Q 444.50 271.88 442.72 266.98
  C 441.93 264.81 442.39 263.00 441.70 261.18
  A 1.61 1.60 5.0 0 0 441.00 260.35
  L 412.85 244.03
  L 408.58 241.78
  Q 393.99 232.22 378.04 223.81
  A 1.66 1.65 42.8 0 0 376.38 223.87
  L 371.64 226.85
  A 1.11 1.09 74.5 0 0 371.12 227.79
  L 371.12 249.17
  A 2.66 2.64 15.3 0 0 372.43 251.45
  Q 379.64 255.67 379.22 261.55
  A 1.51 1.50 17.0 0 0 379.97 262.95
  L 408.38 279.49
  Z"
/>
<path fill="#1e1e1e" d="
  M 408.97 234.26
  L 386.55 221.19
  L 407.89 208.18
  A 0.65 0.64 74.2 0 1 408.87 208.73
  L 408.97 234.26
  Z"
/>
<path fill="#31557a" d="
  M 493.93 217.75
  Q 486.68 220.91 480.27 225.79
  Q 478.25 227.33 471.59 230.66
  Q 468.73 232.09 464.24 234.80
  Q 460.64 236.96 456.79 238.76
  L 456.62 233.03
  L 456.85 234.22
  A 0.40 0.40 0.0 0 0 457.50 234.44
  Q 459.85 232.43 462.80 231.40
  A 3.14 3.05 15.6 0 0 463.61 230.96
  Q 471.44 225.00 482.80 219.79
  Q 487.77 217.51 491.50 213.41
  L 493.93 217.75
  Z"
/>
<path fill="#31557a" d="
  M 329.75 214.60
  Q 334.21 216.93 338.63 219.45
  C 346.45 223.91 353.94 227.85 361.46 232.79
  A 3.79 3.77 -76.5 0 1 363.14 235.55
  L 363.14 235.58
  A 0.99 0.99 0.0 0 1 361.70 236.57
  Q 346.92 228.96 344.60 227.41
  Q 336.50 221.99 327.91 217.46
  L 329.75 214.60
  Z"
/>
<ellipse fill="#ffffff" cx="0.00" cy="0.00" transform="translate(836.95,224.04) rotate(-159.2)" rx="9.18" ry="8.91"/>
<path fill="#ffffff" d="
  M 928.73 244.80
  A 0.52 0.52 0.0 0 1 928.21 245.33
  L 915.05 245.33
  A 0.74 0.73 88.8 0 1 914.32 244.62
  C 914.20 241.83 914.67 238.37 913.19 236.00
  Q 911.20 232.81 907.95 230.85
  Q 905.68 229.47 900.86 229.72
  Q 900.01 229.76 884.69 229.74
  A 2.80 2.76 -56.8 0 0 883.54 229.99
  Q 876.66 233.04 874.94 240.17
  A 1.40 0.95 60.8 0 0 874.92 240.40
  L 874.92 283.11
  A 2.86 2.75 -54.2 0 0 875.03 283.89
  Q 877.39 291.59 884.78 293.68
  A 2.43 2.15 48.6 0 0 885.34 293.75
  L 904.66 293.75
  A 3.98 3.96 -52.8 0 0 905.74 293.60
  Q 910.66 292.22 913.38 286.73
  C 914.59 284.27 914.36 281.19 914.43 278.24
  A 0.65 0.65 0.0 0 1 915.08 277.61
  L 927.72 277.61
  A 0.90 0.90 0.0 0 1 928.62 278.51
  C 928.62 284.46 929.44 289.00 926.11 293.49
  Q 921.32 299.96 914.65 304.90
  C 913.19 305.98 909.63 306.49 907.29 306.51
  Q 893.44 306.66 881.27 306.43
  C 873.74 306.29 865.74 296.62 862.10 290.97
  C 860.97 289.21 860.56 285.91 860.57 283.48
  Q 860.61 261.29 860.62 237.52
  Q 860.63 233.88 863.11 230.79
  Q 868.68 223.84 873.33 220.05
  C 877.08 216.99 881.02 217.14 886.95 217.12
  Q 901.01 217.08 909.75 217.14
  Q 913.63 217.17 916.62 219.87
  Q 921.70 224.46 925.89 229.39
  Q 927.96 231.81 928.61 234.36
  A 2.27 1.99 41.3 0 1 928.68 234.90
  L 928.73 244.80
  Z"
/>
<path fill="#ffffff" d="
  M 565.97 217.62
  L 579.04 217.62
  A 1.19 1.18 73.7 0 1 580.04 218.17
  L 618.86 280.00
  A 0.44 0.44 0.0 0 0 619.67 279.77
  L 619.67 217.95
  A 0.28 0.27 -0.0 0 1 619.95 217.68
  L 633.37 217.68
  A 0.37 0.36 -0.0 0 1 633.74 218.04
  L 633.74 304.89
  A 0.99 0.98 -90.0 0 1 632.76 305.88
  L 620.63 305.88
  A 1.41 1.41 0.0 0 1 619.42 305.19
  C 611.99 292.77 608.04 287.08 600.82 275.24
  C 593.27 262.86 588.29 255.45 580.26 243.17
  A 0.33 0.33 0.0 0 0 579.65 243.35
  L 579.65 304.92
  A 0.96 0.96 0.0 0 1 578.69 305.88
  L 565.76 305.88
  A 0.45 0.44 -0.0 0 1 565.31 305.44
  L 565.31 218.28
  A 0.66 0.66 0.0 0 1 565.97 217.62
  Z"
/>
<path fill="#ffffff" d="
  M 973.28 217.62
  Q 976.94 217.62 980.47 217.66
  A 0.73 0.73 0.0 0 1 981.16 218.15
  L 1011.63 305.11
  A 0.57 0.57 0.0 0 1 1011.09 305.87
  L 997.87 305.86
  A 0.95 0.93 -9.6 0 1 996.98 305.24
  L 990.18 285.81
  A 1.05 1.04 80.0 0 0 989.21 285.12
  Q 987.73 285.12 973.29 285.12
  Q 958.85 285.12 957.37 285.12
  A 1.05 1.04 -80.0 0 0 956.39 285.81
  L 949.60 305.24
  A 0.95 0.93 9.6 0 1 948.71 305.86
  L 935.49 305.88
  A 0.57 0.57 0.0 0 1 934.95 305.12
  L 965.40 218.15
  A 0.73 0.73 0.0 0 1 966.09 217.66
  Q 969.62 217.62 973.28 217.62
  Z
  M 960.55 272.18
  A 0.54 0.54 0.0 0 0 961.07 272.89
  L 985.06 273.02
  A 0.54 0.54 0.0 0 0 985.57 272.31
  L 973.77 234.74
  A 0.54 0.54 0.0 0 0 972.75 234.74
  L 960.55 272.18
  Z"
/>
<path fill="#ffffff" d="
  M 1022.46 218.08
  A 0.36 0.36 0.0 0 1 1022.82 217.72
  L 1063.01 217.65
  A 26.75 25.83 -0.1 0 1 1089.81 243.43
  L 1089.87 280.11
  A 26.75 25.83 -0.1 0 1 1063.17 305.99
  L 1022.98 306.06
  A 0.36 0.36 0.0 0 1 1022.62 305.70
  L 1022.46 218.08
  Z
  M 1036.80 230.79
  L 1036.70 292.75
  A 0.71 0.71 0.0 0 0 1037.40 293.46
  L 1060.87 293.50
  A 14.48 14.16 0.1 0 0 1075.38 279.36
  L 1075.44 244.30
  A 14.48 14.16 0.1 0 0 1060.99 230.12
  L 1037.52 230.08
  A 0.71 0.71 0.0 0 0 1036.80 230.79
  Z"
/>
<path fill="#1e1e1e" d="
  M 493.93 217.75
  Q 496.22 219.89 498.63 220.91
  A 1.32 1.31 -78.5 0 1 499.43 222.12
  L 499.43 301.65
  A 0.89 0.89 0.0 0 1 498.89 302.47
  Q 496.22 303.61 493.66 306.15
  Q 487.89 303.47 482.65 299.75
  Q 480.24 298.03 479.27 297.55
  Q 477.27 296.57 475.69 295.45
  Q 474.92 294.89 470.09 292.53
  Q 463.56 289.35 459.25 286.57
  Q 457.56 285.49 456.80 284.69
  A 1.31 1.30 22.9 0 1 456.43 283.78
  L 456.41 277.97
  Q 456.25 275.79 456.97 274.16
  A 1.37 1.37 0.0 0 1 457.61 273.49
  Q 463.48 270.50 464.69 263.79
  L 497.18 263.63
  A 1.14 1.13 18.7 0 0 498.04 263.21
  Q 498.43 262.73 498.92 262.60
  A 0.53 0.52 64.5 0 0 499.21 261.77
  Q 497.99 260.14 497.10 260.14
  Q 482.07 260.30 465.70 259.50
  A 1.28 1.25 -14.4 0 1 464.68 258.91
  L 463.96 257.75
  Q 461.75 253.36 457.16 251.76
  A 1.11 1.10 10.8 0 1 456.42 250.68
  L 456.79 238.76
  Q 460.64 236.96 464.24 234.80
  Q 468.73 232.09 471.59 230.66
  Q 478.25 227.33 480.27 225.79
  Q 486.68 220.91 493.93 217.75
  Z"
/>
<path fill="#1e1e1e" d="
  M 408.58 241.78
  L 408.81 259.19
  A 1.02 1.02 0.0 0 1 407.79 260.22
  L 390.36 260.22
  A 0.79 0.78 64.9 0 0 389.86 261.61
  Q 391.46 262.93 394.27 263.37
  Q 394.44 263.40 408.03 263.38
  A 0.90 0.89 -89.1 0 1 408.92 264.31
  L 408.38 279.49
  L 379.97 262.95
  A 1.51 1.50 17.0 0 1 379.22 261.55
  Q 379.64 255.67 372.43 251.45
  A 2.66 2.64 15.3 0 1 371.12 249.17
  L 371.12 227.79
  A 1.11 1.09 74.5 0 1 371.64 226.85
  L 376.38 223.87
  A 1.66 1.65 42.8 0 1 378.04 223.81
  Q 393.99 232.22 408.58 241.78
  Z"
/>
<path fill="#1e1e1e" d="
  M 1036.80 230.79
  A 0.71 0.71 0.0 0 1 1037.52 230.08
  L 1060.99 230.12
  A 14.48 14.16 0.1 0 1 1075.44 244.30
  L 1075.38 279.36
  A 14.48 14.16 0.1 0 1 1060.87 293.50
  L 1037.40 293.46
  A 0.71 0.71 0.0 0 1 1036.70 292.75
  L 1036.80 230.79
  Z"
/>
<path fill="#1e1e1e" d="
  M 960.55 272.18
  L 972.75 234.74
  A 0.54 0.54 0.0 0 1 973.77 234.74
  L 985.57 272.31
  A 0.54 0.54 0.0 0 1 985.06 273.02
  L 961.07 272.89
  A 0.54 0.54 0.0 0 1 960.55 272.18
  Z"
/>
<path fill="#ffffff" d="
  M 736.90 248.12
  A 0.45 0.45 0.0 0 0 737.70 248.41
  Q 743.43 241.60 751.56 240.95
  C 760.08 240.27 766.10 241.73 771.29 248.78
  A 0.81 0.80 47.9 0 0 772.54 248.85
  Q 780.02 240.67 789.68 240.72
  Q 791.41 240.73 796.34 240.93
  C 801.60 241.13 805.52 244.34 808.63 247.88
  C 812.85 252.66 813.63 257.13 813.61 264.10
  Q 813.52 290.46 813.67 305.38
  A 0.56 0.56 0.0 0 1 813.11 305.94
  L 799.98 305.94
  A 0.53 0.52 -0.0 0 1 799.45 305.42
  Q 799.43 288.33 799.43 264.59
  C 799.43 259.20 797.97 254.40 792.47 253.29
  Q 782.88 251.36 777.39 259.58
  Q 775.91 261.80 775.91 263.51
  Q 775.87 287.69 775.99 304.93
  A 0.93 0.93 0.0 0 1 775.06 305.87
  L 762.62 305.87
  A 1.05 1.04 90.0 0 1 761.58 304.82
  Q 761.55 272.93 761.51 264.22
  C 761.48 258.89 760.04 254.55 754.69 253.39
  Q 745.51 251.41 739.67 259.89
  Q 738.12 262.13 738.11 263.76
  Q 737.90 288.98 738.11 305.42
  A 0.49 0.49 0.0 0 1 737.62 305.92
  L 724.41 305.92
  A 0.76 0.76 0.0 0 1 723.65 305.16
  L 723.65 242.38
  A 0.72 0.72 0.0 0 1 724.37 241.66
  L 736.12 241.66
  A 0.78 0.78 0.0 0 1 736.90 242.44
  L 736.90 248.12
  Z"
/>
<path fill="#ffffff" d="
  M 678.85 241.03
  Q 691.51 240.99 691.64 240.99
  C 695.41 241.05 698.22 243.56 701.02 246.13
  C 705.40 250.16 708.81 253.67 708.81 259.18
  Q 708.81 266.46 708.83 273.62
  Q 708.86 280.77 708.90 288.05
  C 708.93 293.56 705.54 297.09 701.19 301.15
  C 698.40 303.73 695.61 306.26 691.83 306.35
  Q 691.71 306.35 679.05 306.39
  Q 666.39 306.43 666.27 306.42
  C 662.49 306.36 659.68 303.85 656.88 301.28
  C 652.50 297.25 649.09 293.74 649.09 288.24
  Q 649.09 280.95 649.07 273.80
  Q 649.05 266.64 649.00 259.36
  C 648.97 253.85 652.36 250.32 656.71 246.27
  C 659.50 243.68 662.29 241.15 666.07 241.07
  Q 666.20 241.06 678.85 241.03
  Z
  M 694.5505 262.5427
  A 9.35 9.35 0.0 0 0 685.1842 253.2090
  L 672.5442 253.2311
  A 9.35 9.35 0.0 0 0 663.2105 262.5974
  L 663.2495 284.9373
  A 9.35 9.35 0.0 0 0 672.6158 294.2710
  L 685.2558 294.2489
  A 9.35 9.35 0.0 0 0 694.5895 284.8826
  L 694.5505 262.5427
  Z"
/>
<rect fill="#ffffff" x="829.93" y="241.54" width="14.20" height="64.36" rx="0.63"/>
<path fill="#31557a" d="
  M 412.85 244.03
  L 412.64 259.27
  A 0.86 0.85 88.5 0 0 413.55 260.14
  C 418.89 259.80 426.10 258.86 429.22 262.21
  A 0.71 0.70 68.4 0 1 428.71 263.40
  L 413.52 263.40
  A 1.05 1.05 0.0 0 0 412.47 264.48
  L 412.96 281.84
  L 408.38 279.49
  L 408.92 264.31
  A 0.90 0.89 -89.1 0 0 408.03 263.38
  Q 394.44 263.40 394.27 263.37
  Q 391.46 262.93 389.86 261.61
  A 0.79 0.78 64.9 0 1 390.36 260.22
  L 407.79 260.22
  A 1.02 1.02 0.0 0 0 408.81 259.19
  L 408.58 241.78
  L 412.85 244.03
  Z"
/>
<path fill="#1e1e1e" d="
  M 412.85 244.03
  L 441.00 260.35
  A 1.61 1.60 5.0 0 1 441.70 261.18
  C 442.39 263.00 441.93 264.81 442.72 266.98
  Q 444.50 271.88 449.24 273.36
  A 1.39 1.39 0.0 0 1 450.21 274.58
  Q 451.08 285.28 450.30 295.63
  A 1.57 1.56 -9.2 0 1 449.34 296.96
  Q 447.06 297.88 444.89 299.79
  A 1.20 1.20 0.0 0 1 443.48 299.92
  L 412.96 281.84
  L 412.47 264.48
  A 1.05 1.05 0.0 0 1 413.52 263.40
  L 428.71 263.40
  A 0.71 0.70 68.4 0 0 429.22 262.21
  C 426.10 258.86 418.89 259.80 413.55 260.14
  A 0.86 0.85 88.5 0 1 412.64 259.27
  L 412.85 244.03
  Z"
/>
<rect fill="#1e1e1e" x="-15.67" y="-20.52" transform="translate(678.90,273.74) rotate(-0.1)" width="31.34" height="41.04" rx="9.35"/>
<path fill="#31557a" d="
  M 464.69 263.79
  L 463.96 257.75
  L 464.68 258.91
  A 1.28 1.25 -14.4 0 0 465.70 259.50
  Q 482.07 260.30 497.10 260.14
  Q 497.99 260.14 499.21 261.77
  A 0.53 0.52 64.5 0 1 498.92 262.60
  Q 498.43 262.73 498.04 263.21
  A 1.14 1.13 18.7 0 1 497.18 263.63
  L 464.69 263.79
  Z"
/>
<path fill="#31557a" d="
  M 356.32 260.32
  Q 356.11 263.56 357.05 267.01
  L 355.91 264.29
  A 1.15 1.14 75.6 0 0 354.75 263.60
  Q 351.43 263.95 350.25 263.90
  Q 341.99 263.58 324.02 263.29
  A 1.74 1.69 -31.7 0 1 323.39 263.15
  Q 323.18 263.05 323.07 263.00
  A 0.62 0.61 -59.4 0 0 322.26 263.21
  L 322.04 263.55
  L 322.08 260.41
  L 356.32 260.32
  Z"
/>
<path fill="#1e1e1e" d="
  M 357.05 267.01
  Q 359.09 271.66 363.80 273.36
  A 1.49 1.49 0.0 0 1 364.79 274.79
  L 364.59 284.88
  C 360.38 287.18 356.16 289.13 352.22 291.91
  Q 347.40 295.30 345.72 296.21
  Q 336.83 301.03 328.31 306.37
  Q 325.70 303.91 322.73 302.70
  A 0.86 0.85 11.4 0 1 322.20 301.91
  L 322.04 263.55
  L 322.26 263.21
  A 0.62 0.61 -59.4 0 1 323.07 263.00
  Q 323.18 263.05 323.39 263.15
  A 1.74 1.69 -31.7 0 0 324.02 263.29
  Q 341.99 263.58 350.25 263.90
  Q 351.43 263.95 354.75 263.60
  A 1.15 1.14 75.6 0 1 355.91 264.29
  L 357.05 267.01
  Z"
/>
<path fill="#1e1e1e" d="
  M 408.60 286.95
  L 408.83 313.65
  A 0.62 0.61 -75.9 0 1 407.92 314.20
  Q 395.49 307.36 385.35 300.08
  A 0.47 0.42 66.7 0 0 385.20 300.01
  L 380.64 298.66
  A 0.93 0.93 0.0 0 0 380.14 298.66
  Q 378.62 299.05 377.24 298.52
  Q 375.27 295.97 372.63 295.03
  A 2.18 2.18 0.0 0 1 371.17 292.97
  L 371.17 274.50
  A 1.47 1.47 0.0 0 1 372.06 273.15
  Q 375.24 271.79 377.03 269.25
  A 0.94 0.94 0.0 0 1 378.27 268.99
  L 408.60 286.95
  Z"
/>
<path fill="#31557a" d="
  M 456.41 277.97
  L 456.43 283.78
  A 1.31 1.30 22.9 0 0 456.80 284.69
  Q 457.56 285.49 459.25 286.57
  Q 463.56 289.35 470.09 292.53
  Q 474.92 294.89 475.69 295.45
  Q 477.27 296.57 479.27 297.55
  Q 480.24 298.03 482.65 299.75
  Q 487.89 303.47 493.66 306.15
  Q 492.07 307.60 491.31 310.32
  L 491.09 308.72
  A 1.03 1.02 -82.1 0 0 490.50 307.93
  Q 485.91 305.85 482.26 303.56
  Q 479.11 301.58 473.98 298.90
  Q 466.78 295.14 458.85 289.61
  C 457.98 289.00 457.83 288.28 457.10 287.58
  A 0.31 0.31 0.0 0 0 456.57 287.79
  L 456.41 290.80
  Q 455.68 284.35 456.41 277.97
  Z"
/>
<path fill="#31557a" d="
  M 364.59 284.88
  L 364.67 289.53
  L 330.09 309.51
  L 328.31 306.37
  Q 336.83 301.03 345.72 296.21
  Q 347.40 295.30 352.22 291.91
  C 356.16 289.13 360.38 287.18 364.59 284.88
  Z"
/>
<path fill="#31557a" d="
  M 412.86 289.57
  L 412.45 313.53
  A 0.85 0.85 0.0 0 0 413.80 314.23
  Q 424.02 306.88 435.03 302.31
  L 437.87 304.32
  L 415.30 317.41
  A 0.59 0.59 0.0 0 0 415.40 318.48
  Q 417.04 319.07 420.72 321.27
  Q 428.12 325.69 432.43 328.58
  Q 435.42 330.59 447.02 337.23
  Q 448.21 337.91 449.63 339.11
  A 1.48 1.47 -78.4 0 0 451.99 337.55
  Q 451.43 335.68 452.08 333.34
  A 2.93 2.81 -37.4 0 0 452.19 332.63
  Q 452.44 325.36 450.99 319.18
  Q 453.12 319.72 455.67 319.21
  Q 454.01 326.13 454.83 335.48
  A 1.76 1.76 0.0 0 0 455.89 336.93
  Q 456.30 337.10 457.77 336.55
  L 444.44 343.65
  L 446.02 342.39
  A 0.98 0.98 0.0 0 0 445.90 340.78
  L 413.68 321.88
  A 0.74 0.73 -76.2 0 0 412.58 322.55
  C 412.87 328.66 413.22 332.49 412.46 337.65
  Q 411.88 341.56 411.89 343.50
  Q 411.91 349.49 413.69 356.28
  L 408.18 355.93
  Q 409.03 351.55 409.20 346.50
  Q 409.35 342.28 408.99 338.66
  C 408.36 332.22 408.74 329.65 409.01 322.75
  Q 409.02 322.57 408.90 322.29
  A 0.91 0.91 0.0 0 0 407.55 321.89
  Q 400.88 326.45 394.40 329.88
  Q 392.04 331.12 384.34 335.97
  Q 379.45 339.06 374.00 341.63
  L 370.62 339.60
  Q 374.34 336.54 377.68 334.91
  Q 386.07 330.80 390.64 327.74
  C 396.27 323.97 400.19 322.02 405.71 318.59
  A 0.87 0.86 44.4 0 0 405.69 317.11
  L 381.28 302.80
  A 1.24 1.24 0.0 0 0 379.42 304.02
  Q 379.69 306.19 379.13 307.10
  Q 379.58 302.44 377.24 298.52
  Q 378.62 299.05 380.14 298.66
  A 0.93 0.93 0.0 0 1 380.64 298.66
  L 385.20 300.01
  A 0.47 0.42 66.7 0 1 385.35 300.08
  Q 395.49 307.36 407.92 314.20
  A 0.62 0.61 -75.9 0 0 408.83 313.65
  L 408.60 286.95
  L 412.86 289.57
  Z"
/>
<path fill="#1e1e1e" d="
  M 491.31 310.32
  L 491.31 315.47
  A 1.79 1.78 -14.5 0 1 490.39 317.03
  C 482.37 321.43 474.28 325.50 466.51 330.76
  Q 462.16 333.69 457.77 336.55
  Q 456.30 337.10 455.89 336.93
  A 1.76 1.76 0.0 0 1 454.83 335.48
  Q 454.01 326.13 455.67 319.21
  Q 463.54 317.01 464.53 309.25
  C 465.35 302.80 462.01 299.80 457.09 296.81
  A 0.97 0.95 14.9 0 1 456.63 296.03
  L 456.41 290.80
  L 456.57 287.79
  A 0.31 0.31 0.0 0 1 457.10 287.58
  C 457.83 288.28 457.98 289.00 458.85 289.61
  Q 466.78 295.14 473.98 298.90
  Q 479.11 301.58 482.26 303.56
  Q 485.91 305.85 490.50 307.93
  A 1.03 1.02 -82.1 0 1 491.09 308.72
  L 491.31 310.32
  Z"
/>
<path fill="#1e1e1e" d="
  M 364.67 289.53
  L 364.61 293.77
  A 0.91 0.89 -13.5 0 1 364.12 294.55
  C 359.88 296.75 356.89 299.45 356.66 304.49
  Q 356.21 314.49 365.92 316.86
  Q 366.19 324.78 365.92 332.99
  Q 365.90 333.72 366.15 334.97
  Q 366.44 336.39 365.84 336.88
  L 331.13 316.79
  A 1.11 1.09 -77.5 0 1 330.57 315.90
  L 330.09 309.51
  L 364.67 289.53
  Z"
/>
<path fill="#1e1e1e" d="
  M 412.86 289.57
  L 435.03 302.31
  Q 424.02 306.88 413.80 314.23
  A 0.85 0.85 0.0 0 1 412.45 313.53
  L 412.86 289.57
  Z"
/>
<path fill="#1e1e1e" d="
  M 370.62 339.60
  L 369.49 338.76
  Q 370.49 336.31 370.33 334.25
  Q 369.56 324.50 370.35 316.73
  Q 377.94 314.91 379.13 307.10
  Q 379.69 306.19 379.42 304.02
  A 1.24 1.24 0.0 0 1 381.28 302.80
  L 405.69 317.11
  A 0.87 0.86 44.4 0 1 405.71 318.59
  C 400.19 322.02 396.27 323.97 390.64 327.74
  Q 386.07 330.80 377.68 334.91
  Q 374.34 336.54 370.62 339.60
  Z"
/>
<path fill="#1e1e1e" d="
  M 437.87 304.32
  Q 439.75 304.88 441.33 306.12
  A 1.14 1.14 0.0 0 1 441.77 307.04
  Q 441.70 316.40 450.99 319.18
  Q 452.44 325.36 452.19 332.63
  A 2.93 2.81 -37.4 0 1 452.08 333.34
  Q 451.43 335.68 451.99 337.55
  A 1.48 1.47 -78.4 0 1 449.63 339.11
  Q 448.21 337.91 447.02 337.23
  Q 435.42 330.59 432.43 328.58
  Q 428.12 325.69 420.72 321.27
  Q 417.04 319.07 415.40 318.48
  A 0.59 0.59 0.0 0 1 415.30 317.41
  L 437.87 304.32
  Z"
/>
<path fill="#31557a" d="
  M 370.35 316.73
  Q 369.56 324.50 370.33 334.25
  Q 370.49 336.31 369.49 338.76
  Q 367.41 338.13 365.84 336.88
  Q 366.44 336.39 366.15 334.97
  Q 365.90 333.72 365.92 332.99
  Q 366.19 324.78 365.92 316.86
  L 370.35 316.73
  Z"
/>
<path fill="#1e1e1e" d="
  M 408.18 355.93
  L 403.03 358.31
  A 0.95 0.94 47.6 0 1 402.17 358.27
  L 374.00 341.63
  Q 379.45 339.06 384.34 335.97
  Q 392.04 331.12 394.40 329.88
  Q 400.88 326.45 407.55 321.89
  A 0.91 0.91 0.0 0 1 408.90 322.29
  Q 409.02 322.57 409.01 322.75
  C 408.74 329.65 408.36 332.22 408.99 338.66
  Q 409.35 342.28 409.20 346.50
  Q 409.03 351.55 408.18 355.93
  Z"
/>
<path fill="#1e1e1e" d="
  M 444.44 343.65
  L 419.31 358.64
  A 0.84 0.83 49.6 0 1 418.36 358.56
  Q 416.77 357.25 413.69 356.28
  Q 411.91 349.49 411.89 343.50
  Q 411.88 341.56 412.46 337.65
  C 413.22 332.49 412.87 328.66 412.58 322.55
  A 0.74 0.73 -76.2 0 1 413.68 321.88
  L 445.90 340.78
  A 0.98 0.98 0.0 0 1 446.02 342.39
  L 444.44 343.65
  Z"
/>
</svg>
